<svg xmlns="http://www.w3.org/2000/svg" width="20.578" height="21.95" viewBox="0 0 20.578 21.95"><defs><style>.a,.b{fill:#004f71;}.a{fill-rule:evenodd;}</style></defs><path class="a" d="M20.253.1a.686.686,0,0,1,.325.583V21.264a.686.686,0,0,1-.686.686H15.776a.686.686,0,0,1-.686-.686V19.206H13.719v2.058a.686.686,0,0,1-.686.686H.686A.686.686,0,0,1,0,21.264V13.718a.686.686,0,0,1,.469-.651l7.762-2.587V6.173A.686.686,0,0,1,8.61,5.56L19.585.072a.686.686,0,0,1,.668.03ZM8.231,11.927,1.372,14.212v6.365H8.231ZM9.6,20.578h2.744V18.52a.686.686,0,0,1,.686-.686h2.744a.686.686,0,0,1,.686.686v2.058h2.744V1.8L9.6,6.6Z" transform="translate(0 0)"/><path class="b" d="M4.5,17.725H5.872V19.1H4.5Zm2.744,0H8.616V19.1H7.244ZM4.5,20.469H5.872V21.84H4.5Zm2.744,0H8.616V21.84H7.244Zm5.487-5.487H14.1v1.372H12.731Zm2.744,0h1.372v1.372H15.475Zm-2.744,2.744H14.1V19.1H12.731Zm2.744,0h1.372V19.1H15.475Zm2.744-2.744H19.59v1.372H18.219Zm0,2.744H19.59V19.1H18.219Zm-5.487-5.487H14.1v1.372H12.731Zm2.744,0h1.372v1.372H15.475Zm2.744,0H19.59v1.372H18.219ZM12.731,9.494H14.1v1.372H12.731Zm2.744,0h1.372v1.372H15.475Zm2.744,0H19.59v1.372H18.219Zm0-2.744H19.59V8.122H18.219Z" transform="translate(-1.756 -2.634)"/></svg>