<svg xmlns="http://www.w3.org/2000/svg" width="20" height="15.87" viewBox="0 0 20 15.87"><defs><style>.a{fill:#004f71;}</style></defs><path class="a" d="M3.125,15.583H.625a.618.618,0,0,0-.625.61v2.442a.618.618,0,0,0,.625.61h2.5a.618.618,0,0,0,.625-.61V16.193A.618.618,0,0,0,3.125,15.583Zm0-12.208H.625A.618.618,0,0,0,0,3.985V6.427a.618.618,0,0,0,.625.61h2.5a.618.618,0,0,0,.625-.61V3.985A.618.618,0,0,0,3.125,3.375Zm0,6.1H.625a.618.618,0,0,0-.625.61v2.442a.618.618,0,0,0,.625.61h2.5a.618.618,0,0,0,.625-.61V10.089A.618.618,0,0,0,3.125,9.479Zm16.25,6.714H6.875a.618.618,0,0,0-.625.61v1.221a.618.618,0,0,0,.625.61h12.5a.618.618,0,0,0,.625-.61V16.8A.618.618,0,0,0,19.375,16.193Zm0-12.208H6.875a.618.618,0,0,0-.625.61V5.817a.618.618,0,0,0,.625.61h12.5A.618.618,0,0,0,20,5.817V4.6A.618.618,0,0,0,19.375,3.985Zm0,6.1H6.875a.618.618,0,0,0-.625.61V11.92a.618.618,0,0,0,.625.61h12.5A.618.618,0,0,0,20,11.92V10.7A.618.618,0,0,0,19.375,10.089Z" transform="translate(0 -3.375)"/></svg>