<svg xmlns="http://www.w3.org/2000/svg" width="28" height="28" viewBox="0 0 28 28"><defs><style>.a{fill:none;}.b{fill:#84c7dd;}</style></defs><rect class="a" width="28" height="28"/><g transform="translate(2.337 4.634)"><path class="b" d="M10.673,13.346A4.673,4.673,0,1,0,6,8.673,4.672,4.672,0,0,0,10.673,13.346Zm0-7.01A2.337,2.337,0,1,1,8.337,8.673,2.343,2.343,0,0,1,10.673,6.337Z" transform="translate(-1.34 -4)"/><path class="b" d="M4.337,18.672c.257-.841,3.867-2.337,7.01-2.337a6.946,6.946,0,0,1,.409-2.325C8.566,13.894,2,15.483,2,18.672v2.337H13.146a6.864,6.864,0,0,1-1.39-2.337Z" transform="translate(-2 -2.316)"/><path class="b" d="M20.681,19.033a4.514,4.514,0,0,0,.666-2.36,4.673,4.673,0,1,0-4.673,4.673,4.625,4.625,0,0,0,2.36-.666l3,3,1.647-1.647C21.931,20.283,22.76,21.1,20.681,19.033Zm-4.007-.023a2.337,2.337,0,1,1,2.337-2.337A2.343,2.343,0,0,1,16.673,19.01Z" transform="translate(-0.356 -2.654)"/></g></svg>