<svg xmlns="http://www.w3.org/2000/svg" width="20" height="20" viewBox="0 0 20 20"><defs><style>.a{fill:#004f71;fill-rule:evenodd;}</style></defs><path class="a" d="M13.259,23q-.26.007-.52,0A10,10,0,0,1,5.908,5.95l.042-.042a9.99,9.99,0,0,1,14.106.006l.03.03A10,10,0,0,1,13.26,23Zm1.772-6.55,2.874,2.873a8,8,0,0,1-9.812,0l2.874-2.874a4.007,4.007,0,0,0,4.064,0ZM9.554,15.031,6.68,17.906a8,8,0,0,1,0-9.812l2.874,2.874a4.007,4.007,0,0,0,0,4.064Zm1.528-1.463a2.01,2.01,0,0,1-.014-1.087,2,2,0,1,1,.014,1.087Zm3.95-4.015a4.007,4.007,0,0,0-4.064,0L8.094,6.68a8,8,0,0,1,9.812,0L15.031,9.554ZM19.319,17.9a8,8,0,0,0,0-9.812l-2.874,2.874a4.007,4.007,0,0,1,0,4.064Z" transform="translate(-2.999 -3)"/></svg>