<svg xmlns="http://www.w3.org/2000/svg" width="24" height="24" viewBox="0 0 24 24"><defs><style>.a{fill:none;}.b{fill:#84c7dd;}</style></defs><rect class="a" width="24" height="24"/><path class="b" d="M12,2A10,10,0,1,0,22,12,10,10,0,0,0,12,2Zm7.46,7.12-2.78,1.15a4.982,4.982,0,0,0-2.95-2.94l1.15-2.78A7.963,7.963,0,0,1,19.46,9.12ZM12,15a3,3,0,1,1,3-3A3,3,0,0,1,12,15ZM9.13,4.54,10.3,7.32a5,5,0,0,0-2.98,2.97L4.54,9.13A7.984,7.984,0,0,1,9.13,4.54ZM4.54,14.87l2.78-1.15a4.968,4.968,0,0,0,2.97,2.96L9.12,19.46A8,8,0,0,1,4.54,14.87Zm10.34,4.59-1.15-2.78a4.978,4.978,0,0,0,2.95-2.97l2.78,1.17A8.007,8.007,0,0,1,14.88,19.46Z"/></svg>