<svg xmlns="http://www.w3.org/2000/svg" width="18" height="18.75" viewBox="0 0 18 18.75">
  <path id="Icon_material-add-shopping-cart" data-name="Icon material-add-shopping-cart" d="M10.429,8.643h1.786V5.964h2.679V4.179H12.214V1.5H10.429V4.179H7.75V5.964h2.679ZM6.857,16.679a1.786,1.786,0,1,0,1.786,1.786A1.783,1.783,0,0,0,6.857,16.679Zm8.929,0a1.786,1.786,0,1,0,1.786,1.786A1.783,1.783,0,0,0,15.786,16.679Zm-8.777-2.9.027-.107.8-1.455h6.652a1.777,1.777,0,0,0,1.563-.92L19.5,5.036l-1.554-.857h-.009l-.982,1.786-2.464,4.464H8.223l-.116-.241-2-4.223L5.259,4.179,4.42,2.393H1.5V4.179H3.286L6.5,10.955,5.295,13.143A1.726,1.726,0,0,0,5.071,14a1.791,1.791,0,0,0,1.786,1.786H17.571V14H7.232A.227.227,0,0,1,7.009,13.777Z" transform="translate(-1.5 -1.5)" fill="#fff"/>
</svg>
