<svg xmlns="http://www.w3.org/2000/svg" width="30.013" height="30" viewBox="0 0 30.013 30"><defs><style>.a{fill:#fff;}</style></defs><path class="a" d="M21.007,6.051a14.995,14.995,0,1,0,10.608,4.385A14.955,14.955,0,0,0,21.007,6.051Zm0,1.539a13.455,13.455,0,1,1-9.5,22.976,13.461,13.461,0,0,1-.026-19.043A13.5,13.5,0,0,1,21.007,7.59Zm-1.3,8.8a.719.719,0,0,0-.534.233L15.289,20.5a.75.75,0,0,0,0,1.086l3.881,3.881a.75.75,0,0,0,1.086,0,.75.75,0,0,0,0-1.086L17.695,21.82h7.969a.776.776,0,0,0,0-1.552H17.695l2.562-2.562a.75.75,0,0,0,0-1.086A.782.782,0,0,0,19.7,16.387Z" transform="translate(-6 -6.051)"/></svg>