<svg xmlns="http://www.w3.org/2000/svg" xmlns:xlink="http://www.w3.org/1999/xlink" width="100" height="100" viewBox="0 0 100 100">
  <defs>
    <filter id="Ellipse_25" x="0" y="0" width="100" height="100" filterUnits="userSpaceOnUse">
      <feOffset dy="3" input="SourceAlpha"/>
      <feGaussianBlur stdDeviation="3" result="blur"/>
      <feFlood flood-opacity="0.161"/>
      <feComposite operator="in" in2="blur"/>
      <feComposite in="SourceGraphic"/>
    </filter>
  </defs>
  <g id="Group_894" data-name="Group 894" transform="translate(-269.915 -161.915)">
    <g transform="matrix(1, 0, 0, 1, 269.91, 161.91)" filter="url(#Ellipse_25)">
      <circle id="Ellipse_25-2" data-name="Ellipse 25" cx="41" cy="41" r="41" transform="translate(9 6)" fill="#fff"/>
    </g>
    <g id="Icon_feather-camera" data-name="Icon feather-camera" transform="translate(300.649 196.159)">
      <path id="Path_837" data-name="Path 837" d="M40.117,32.585A3.511,3.511,0,0,1,36.606,36.1H5.011A3.511,3.511,0,0,1,1.5,32.585V13.277A3.511,3.511,0,0,1,5.011,9.766h7.021L15.543,4.5H26.074l3.511,5.266h7.021a3.511,3.511,0,0,1,3.511,3.511Z" transform="translate(-1.5 -4.5)" fill="none" stroke="#000" stroke-linecap="round" stroke-linejoin="round" stroke-width="1.5"/>
      <path id="Path_838" data-name="Path 838" d="M26.043,20.521A7.021,7.021,0,1,1,19.021,13.5,7.021,7.021,0,0,1,26.043,20.521Z" transform="translate(0.287 -2.968)" fill="none" stroke="#000" stroke-linecap="round" stroke-linejoin="round" stroke-width="1.5"/>
    </g>
  </g>
</svg>
