<svg xmlns="http://www.w3.org/2000/svg" width="35.174" height="23.039" viewBox="0 0 35.174 23.039">
  <path id="Icon_payment-credit-card" data-name="Icon payment-credit-card" d="M38.979,16.35a2.5,2.5,0,0,1,2.416,2.416V36.972a2.5,2.5,0,0,1-2.416,2.416H8.637a2.2,2.2,0,0,1-1.686-.73,2.2,2.2,0,0,1-.73-1.686V18.766a2.2,2.2,0,0,1,.73-1.686,2.2,2.2,0,0,1,1.686-.73H38.979ZM8.637,18.26q-.281,0-.337.169a.486.486,0,0,0-.169.337v3.372H39.484V18.766a.486.486,0,0,0-.169-.337q-.057-.169-.337-.169H8.637ZM38.979,37.478q.281,0,.337-.169a.486.486,0,0,0,.169-.337v-9.1H8.131v9.1a.486.486,0,0,0,.169.337q.055.169.337.169H38.979ZM10.042,35.567V33.6h3.877v1.967Zm5.788,0V33.6h5.732v1.967Z" transform="translate(-6.221 -16.35)" fill="#89b2c4"/>
</svg>
