<svg xmlns="http://www.w3.org/2000/svg" width="20.317" height="20" viewBox="0 0 20.317 20"><defs><style>.a{fill:#001047;}</style></defs><path class="a" d="M8.233,3.375V8.983H5.852l-.132.661L4.026,17.264,4,17.343v6.032H24.317V17.343l-.026-.079L22.6,9.645l-.132-.661H20.085V3.375l-2.54,1.27L15.852,3.8l-1.693.847L12.466,3.8l-1.693.847ZM12.466,5.7l1.693.847L15.852,5.7l1.693.847.847-.423v4.55H9.926V6.126l.847.423ZM7.2,10.677H8.233V12.37H20.085V10.677h1.032L22.439,16.6H5.878Zm2.725,2.54v1.693h1.693V13.216Zm3.386,0v1.693h1.693V13.216Zm3.386,0v1.693h1.693V13.216ZM5.693,18.3H22.624v3.386H5.693Zm8.466.847a.847.847,0,1,0,.847.847A.848.848,0,0,0,14.159,19.142Z" transform="translate(-4 -3.375)"/></svg>