<svg id="Icon_ionic-ios-arrow-dropdown" data-name="Icon ionic-ios-arrow-dropdown" xmlns="http://www.w3.org/2000/svg" width="11.5" height="11.5" viewBox="0 0 11.5 11.5">
  <g id="Icon_ionic-ios-arrow-dropdown-2" data-name="Icon ionic-ios-arrow-dropdown" transform="translate(14.875 14.875) rotate(180)">
    <path id="Path_132" data-name="Path 132" d="M10.138,14.571a.536.536,0,0,0,0,.755l2.646,2.637a.533.533,0,0,0,.735.017l2.607-2.6a.533.533,0,1,0-.752-.755l-2.239,2.206-2.242-2.264A.533.533,0,0,0,10.138,14.571Z" transform="translate(-4.01 -6.698)" fill="#89b2c4"/>
    <path id="Path_133" data-name="Path 133" d="M3.375,9.125a5.75,5.75,0,1,0,5.75-5.75A5.749,5.749,0,0,0,3.375,9.125Zm9.189-3.439A4.859,4.859,0,1,1,9.125,4.26,4.824,4.824,0,0,1,12.564,5.686Z" fill="#89b2c4"/>
  </g>
</svg>
