<svg xmlns="http://www.w3.org/2000/svg" width="20.952" height="20" viewBox="0 0 20.952 20"><defs><style>.a{fill:#4c84ff;}</style></defs><path class="a" d="M8.81,6A2.872,2.872,0,0,0,5.952,8.857v6.458A2.846,2.846,0,0,0,5,17.429V26H9.762V24.1H21.19V26h4.762V17.429A2.846,2.846,0,0,0,25,15.315V8.857A2.872,2.872,0,0,0,22.143,6Zm0,1.9H22.143a.949.949,0,0,1,.952.952v5.714h-1.9v-.952a2.872,2.872,0,0,0-2.857-2.857H12.619a2.872,2.872,0,0,0-2.857,2.857v.952h-1.9V8.857A.949.949,0,0,1,8.81,7.9Zm3.81,4.762h5.714a.949.949,0,0,1,.952.952v.952H11.667v-.952A.949.949,0,0,1,12.619,12.667Zm-4.762,3.81H23.1a.949.949,0,0,1,.952.952V24.1H23.1v-1.9H7.857v1.9H6.9V17.429A.949.949,0,0,1,7.857,16.476Z" transform="translate(-5 -6)"/></svg>