<svg xmlns="http://www.w3.org/2000/svg" width="55" height="18" viewBox="0 0 55 18">
  <g id="VISA_Icon" data-name="VISA Icon" transform="translate(-17 104)">
    <g id="Group_687" data-name="Group 687" transform="translate(17 -104)">
      <path id="Path_67" data-name="Path 67" d="M23.843,17.7H19.355L22.16.311h4.488ZM15.58.311,11.3,12.271,10.795,9.7h0l-1.51-7.82A1.927,1.927,0,0,0,7.156.311H.083L0,.605A16.7,16.7,0,0,1,4.694,2.593L8.594,17.7H13.27L20.41.311ZM50.879,17.7H55L51.407.31H47.8a2.064,2.064,0,0,0-2.072,1.3L39.034,17.7h4.678l.936-2.583h5.705l.526,2.583Zm-4.938-6.151L48.3,5.041l1.327,6.507ZM39.385,4.492l.64-3.734A12.856,12.856,0,0,0,35.989,0c-2.227,0-7.516.982-7.516,5.757,0,4.492,6.207,4.548,6.207,6.908s-5.568,1.937-7.405.449l-.667,3.9A12.485,12.485,0,0,0,31.674,18c3.063,0,7.683-1.6,7.683-5.953,0-4.521-6.263-4.942-6.263-6.908s4.371-1.714,6.292-.646Z" transform="translate(0 0)" fill="#197b9a"/>
    </g>
  </g>
</svg>
