<svg id="Logo_with_Tagline" data-name="Logo with Tagline" xmlns="http://www.w3.org/2000/svg" width="124.774" height="30.279" viewBox="0 0 124.774 30.279">
  <path id="Path_92" data-name="Path 92" d="M87.047,432.9v15.73H83.052v-2.076a6.161,6.161,0,0,1-5.047,2.261c-4.119,0-7.525-3.561-7.525-8.174s3.407-8.175,7.525-8.175a6.164,6.164,0,0,1,5.047,2.261V432.9Zm-3.994,7.741a4.29,4.29,0,1,0-4.3,4.366,4.162,4.162,0,0,0,4.3-4.366Z" transform="translate(-70.48 -428.569)" fill="#f5f5f5"/>
  <path id="Path_93" data-name="Path 93" d="M218.235,440.645c0,4.613-3.407,8.174-7.555,8.174a6.011,6.011,0,0,1-5.016-2.261v8.02H201.67V432.9h3.994v1.827a6.015,6.015,0,0,1,5.016-2.261C214.829,432.47,218.235,436.03,218.235,440.645Zm-3.994,0a4.289,4.289,0,1,0-4.3,4.366A4.162,4.162,0,0,0,214.241,440.645Z" transform="translate(-181.923 -428.569)" fill="#f5f5f5"/>
  <path id="Path_94" data-name="Path 94" d="M349.415,432.9v15.73h-3.994v-2.076a6.159,6.159,0,0,1-5.047,2.261c-4.117,0-7.524-3.561-7.524-8.174s3.412-8.175,7.524-8.175a6.164,6.164,0,0,1,5.047,2.261V432.9Zm-3.994,7.741a4.289,4.289,0,1,0-4.3,4.366A4.162,4.162,0,0,0,345.421,440.645Z" transform="translate(-295.776 -428.569)" fill="#f5f5f5"/>
  <path id="Path_95" data-name="Path 95" d="M472.7,435.45v3.835c-2.119-.124-4.706,1.009-4.706,4.26v7.648h-4v-15.73h4v2.663C468.8,436.021,470.755,435.45,472.7,435.45Z" transform="translate(-408.395 -431.128)" fill="#f5f5f5"/>
  <path id="Path_96" data-name="Path 96" d="M546.239,413.035v6.44c0,1.672,1.207,1.7,3.5,1.578v3.623c-5.6.62-7.488-1.022-7.488-5.2v-6.44h-2.7v-3.84h2.694v-3.127l3.994-1.208v4.335h3.5v3.84Z" transform="translate(-473.27 -404.86)" fill="#f5f5f5"/>
  <path id="Path_97" data-name="Path 97" d="M640.18,438.88v9.749h-3.994v-9.255a2.883,2.883,0,0,0-3.066-3.189c-1.95,0-3.405,1.146-3.405,3.839v8.609H625.72V432.9h4v1.734a5.268,5.268,0,0,1,4.613-2.168C637.61,432.47,640.18,434.762,640.18,438.88Z" transform="translate(-547.263 -428.569)" fill="#f5f5f5"/>
  <path id="Path_98" data-name="Path 98" d="M750.607,445.2a4.284,4.284,0,0,0,3.468-1.547l3.22,1.857a7.83,7.83,0,0,1-6.75,3.313c-5.2,0-8.485-3.561-8.485-8.174a8.006,8.006,0,1,1,16.008,0,9.188,9.188,0,0,1-.155,1.64H746.241C746.8,444.33,748.5,445.2,750.607,445.2Zm3.468-6.011a3.758,3.758,0,0,0-3.839-3.128,3.861,3.861,0,0,0-4.056,3.128Z" transform="translate(-647.163 -428.569)" fill="#f5f5f5"/>
  <path id="Path_99" data-name="Path 99" d="M878.078,435.45v3.835c-2.12-.124-4.707,1.009-4.707,4.26v7.648h-4v-15.73h3.994v2.663C874.168,436.021,876.12,435.45,878.078,435.45Z" transform="translate(-756.485 -431.128)" fill="#f5f5f5"/>
  <rect id="Rectangle_799" data-name="Rectangle 799" width="3.958" height="3.958" rx="1.979" transform="translate(120.817 16.195)" fill="#f5f5f5"/>
  <g id="Group_984" data-name="Group 984" transform="translate(26.042 22.17)">
    <path id="Path_100" data-name="Path 100" d="M254.78,569.6V563.58h.989v5.075h2.451v.945Z" transform="translate(-254.78 -563.324)" fill="#f5f5f5"/>
    <path id="Path_101" data-name="Path 101" d="M282.92,578.4V575.76h.928V578.3a1.01,1.01,0,0,0,.256.74.949.949,0,0,0,.706.26,1.041,1.041,0,0,0,.8-.315,1.311,1.311,0,0,0,.292-.924v-2.3h.927v4.3H285.9v-.551a1.472,1.472,0,0,1-1.331.664,1.58,1.58,0,0,1-1.2-.476A1.824,1.824,0,0,1,282.92,578.4Z" transform="translate(-278.944 -573.783)" fill="#f5f5f5"/>
    <path id="Path_102" data-name="Path 102" d="M315,580.059l1.621-2.208-1.533-2.091h1.075l.989,1.361.989-1.361h1.084l-1.529,2.1,1.6,2.2h-1.074l-1.063-1.469-1.075,1.469Z" transform="translate(-306.491 -573.783)" fill="#f5f5f5"/>
    <path id="Path_103" data-name="Path 103" d="M349.27,578.4V575.76h.927V578.3a1.016,1.016,0,0,0,.256.739.953.953,0,0,0,.707.26,1.041,1.041,0,0,0,.8-.315,1.318,1.318,0,0,0,.291-.924v-2.3h.928v4.3h-.928v-.551a1.481,1.481,0,0,1-1.331.664,1.578,1.578,0,0,1-1.2-.476A1.808,1.808,0,0,1,349.27,578.4Z" transform="translate(-335.918 -573.783)" fill="#f5f5f5"/>
    <path id="Path_104" data-name="Path 104" d="M384.59,579.6v-4.3h.928v.719a1.308,1.308,0,0,1,1.327-.794v1h-.119a1.318,1.318,0,0,0-.814.264,1.085,1.085,0,0,0-.394.947v2.169Z" transform="translate(-366.248 -573.328)" fill="#f5f5f5"/>
    <path id="Path_105" data-name="Path 105" d="M402.45,575.76h1.016l1.28,3.12,1.1-3.12h.989l-1.65,4.438a2.045,2.045,0,0,1-1.95,1.587h-.141v-.869h.093a.963.963,0,0,0,.6-.185,1.505,1.505,0,0,0,.445-.663l.041-.085Z" transform="translate(-381.584 -573.783)" fill="#f5f5f5"/>
    <path id="Path_106" data-name="Path 106" d="M453.22,569.6V563.58h.989v5.075h2.451v.945Z" transform="translate(-425.18 -563.324)" fill="#f5f5f5"/>
    <path id="Path_107" data-name="Path 107" d="M481.39,563.387a.565.565,0,0,1,.172-.413.585.585,0,0,1,.848,0,.565.565,0,0,1,.168.413.577.577,0,0,1-.181.424.566.566,0,0,1-.414.172.589.589,0,0,1-.593-.592Zm.13,5.537v-4.3h.928v4.3Z" transform="translate(-449.37 -562.648)" fill="#f5f5f5"/>
    <path id="Path_108" data-name="Path 108" d="M493,575.76h1.016l1.205,3.267,1.191-3.267h1.016l-1.674,4.3h-1.075Z" transform="translate(-459.339 -573.783)" fill="#f5f5f5"/>
    <path id="Path_109" data-name="Path 109" d="M527.5,563.387a.565.565,0,0,1,.173-.413.585.585,0,0,1,.848,0,.565.565,0,0,1,.172.413.576.576,0,0,1-.181.424.565.565,0,0,1-.412.172.589.589,0,0,1-.6-.6Zm.13,5.537v-4.3h.93v4.3Z" transform="translate(-488.964 -562.648)" fill="#f5f5f5"/>
    <path id="Path_110" data-name="Path 110" d="M542.6,579.363v-4.3h.927v.55a1.478,1.478,0,0,1,1.335-.663,1.573,1.573,0,0,1,1.2.476,1.807,1.807,0,0,1,.452,1.3v2.641h-.928V576.82a1,1,0,0,0-.259-.739.948.948,0,0,0-.706-.26,1.032,1.032,0,0,0-.8.315,1.307,1.307,0,0,0-.292.923v2.306Z" transform="translate(-501.931 -573.087)" fill="#f5f5f5"/>
    <path id="Path_111" data-name="Path 111" d="M575.627,577.206a2.156,2.156,0,0,1,.626-1.567,2.054,2.054,0,0,1,1.546-.648,1.718,1.718,0,0,1,1.495.752V575.1h.907v4.1a1.841,1.841,0,0,1-.643,1.5,2.385,2.385,0,0,1-1.565.524,2.088,2.088,0,0,1-2.036-1.051l.8-.455a1.286,1.286,0,0,0,1.255.654,1.344,1.344,0,0,0,.941-.312,1.123,1.123,0,0,0,.339-.868v-.52a1.724,1.724,0,0,1-1.491.745,2.074,2.074,0,0,1-1.54-.641A2.191,2.191,0,0,1,575.627,577.206Zm.928,0a1.3,1.3,0,0,0,.386.961,1.357,1.357,0,0,0,.979.386,1.321,1.321,0,0,0,.973-.386,1.374,1.374,0,0,0,0-1.927,1.321,1.321,0,0,0-.973-.386,1.357,1.357,0,0,0-.979.386A1.312,1.312,0,0,0,576.555,577.206Z" transform="translate(-530.29 -573.121)" fill="#f5f5f5"/>
    <path id="Path_112" data-name="Path 112" d="M629.05,567.522l.848-.5a1.435,1.435,0,0,0,1.5,1.012,1.384,1.384,0,0,0,.832-.212.682.682,0,0,0,.282-.576.632.632,0,0,0-.3-.565,4.639,4.639,0,0,0-1.067-.432,7.385,7.385,0,0,1-.706-.246,3.493,3.493,0,0,1-.554-.305,1.4,1.4,0,0,1-.584-1.212,1.546,1.546,0,0,1,.565-1.263,2.049,2.049,0,0,1,1.368-.47,2.227,2.227,0,0,1,2.1,1.324l-.831.48a1.3,1.3,0,0,0-1.272-.839,1.088,1.088,0,0,0-.689.2.651.651,0,0,0-.259.543.625.625,0,0,0,.259.527,3.37,3.37,0,0,0,.955.413c.254.085.424.141.5.172s.226.079.449.168a1.59,1.59,0,0,1,.437.243,1.415,1.415,0,0,1,.622,1.139v.1a1.581,1.581,0,0,1-.592,1.3,2.289,2.289,0,0,1-1.532.483,2.663,2.663,0,0,1-1.471-.393A2.049,2.049,0,0,1,629.05,567.522Z" transform="translate(-576.165 -562.615)" fill="#f5f5f5"/>
    <path id="Path_113" data-name="Path 113" d="M665.27,563.431a.565.565,0,0,1,.172-.413.595.595,0,0,1,1.016.413.577.577,0,0,1-.181.424.564.564,0,0,1-.412.172.589.589,0,0,1-.595-.592Zm.13,5.537v-4.3h.928v4.3Z" transform="translate(-607.267 -562.692)" fill="#f5f5f5"/>
    <path id="Path_114" data-name="Path 114" d="M680.37,579.361v-4.3h.927v.517a1.377,1.377,0,0,1,1.231-.63,1.313,1.313,0,0,1,1.221.68,1.435,1.435,0,0,1,1.314-.68,1.54,1.54,0,0,1,1.178.476,1.781,1.781,0,0,1,.446,1.271v2.666h-.928v-2.608a1,1,0,0,0-.222-.689.782.782,0,0,0-.613-.247.854.854,0,0,0-.688.282,1.262,1.262,0,0,0-.247.848v2.4h-.928v-2.6a1.033,1.033,0,0,0-.21-.691.739.739,0,0,0-.595-.246.887.887,0,0,0-.7.3,1.229,1.229,0,0,0-.263.848v2.4Z" transform="translate(-620.233 -573.084)" fill="#f5f5f5"/>
    <path id="Path_115" data-name="Path 115" d="M732.12,581.093v-6.02h.928v.617a1.735,1.735,0,0,1,1.508-.73,2.027,2.027,0,0,1,1.51.663,2.355,2.355,0,0,1,0,3.207,2.023,2.023,0,0,1-1.51.657,1.757,1.757,0,0,1-1.508-.722v2.33Zm.928-3.871a1.371,1.371,0,0,0,.386.989,1.413,1.413,0,0,0,1.944,0,1.371,1.371,0,0,0,.386-.989,1.325,1.325,0,0,0-.386-.978,1.384,1.384,0,0,0-1.944,0,1.325,1.325,0,0,0-.386.982Z" transform="translate(-664.671 -573.096)" fill="#f5f5f5"/>
    <path id="Path_116" data-name="Path 116" d="M770.45,568.046V561.77h.925v6.276Z" transform="translate(-697.585 -561.77)" fill="#f5f5f5"/>
    <path id="Path_117" data-name="Path 117" d="M783.7,563.387a.565.565,0,0,1,.172-.413.585.585,0,0,1,.848,0,.566.566,0,0,1,.172.413.577.577,0,0,1-.181.424.566.566,0,0,1-.413.172.589.589,0,0,1-.6-.6Zm.13,5.537v-4.3h.928v4.3Z" transform="translate(-708.928 -562.648)" fill="#f5f5f5"/>
    <path id="Path_118" data-name="Path 118" d="M796.36,565.5v-.886h.656v-.083q0-1.746,1.944-1.746a4.377,4.377,0,0,1,.952.107v.848a6.81,6.81,0,0,0-.952-.068,1.227,1.227,0,0,0-.773.2.806.806,0,0,0-.243.663v.085H800.3v4.3h-.928V565.5h-1.427v3.414h-.928V565.5Z" transform="translate(-719.833 -562.637)" fill="#f5f5f5"/>
    <path id="Path_119" data-name="Path 119" d="M830.134,577.251a2.2,2.2,0,0,1,.634-1.608,2.162,2.162,0,0,1,1.632-.653,2.02,2.02,0,0,1,1.554.663,2.285,2.285,0,0,1,.608,1.608,2.705,2.705,0,0,1-.033.387H831.1a1.178,1.178,0,0,0,.469.75,1.51,1.51,0,0,0,.909.265,1.271,1.271,0,0,0,1.108-.534l.765.445a2.109,2.109,0,0,1-1.881.937,2.315,2.315,0,0,1-1.7-.639A2.2,2.2,0,0,1,830.134,577.251Zm.961-.36h2.528a1.282,1.282,0,0,0-.424-.777,1.222,1.222,0,0,0-.8-.273,1.316,1.316,0,0,0-.856.283,1.271,1.271,0,0,0-.445.763Z" transform="translate(-748.834 -573.121)" fill="#f5f5f5"/>
    <path id="Path_120" data-name="Path 120" d="M865.345,567.454a2.233,2.233,0,0,1,.625-1.608,2.028,2.028,0,0,1,1.516-.653,1.754,1.754,0,0,1,1.5.722V563.58h.927V569.6h-.927v-.618a1.743,1.743,0,0,1-1.5.732,2.029,2.029,0,0,1-1.516-.656A2.231,2.231,0,0,1,865.345,567.454Zm.927,0a1.368,1.368,0,0,0,.387.989,1.413,1.413,0,0,0,1.943,0,1.368,1.368,0,0,0,.387-.989,1.322,1.322,0,0,0-.387-.978,1.383,1.383,0,0,0-1.943,0A1.321,1.321,0,0,0,866.272,567.454Z" transform="translate(-779.07 -563.324)" fill="#f5f5f5"/>
  </g>
</svg>
