<svg xmlns="http://www.w3.org/2000/svg" width="67" height="16.259" viewBox="0 0 67 16.259"><defs><style>.a{fill:#fff;}</style></defs><path class="a" d="M79.376,432.7v8.447H77.231v-1.115a3.308,3.308,0,0,1-2.71,1.214,4.4,4.4,0,0,1,0-8.779,3.31,3.31,0,0,1,2.71,1.214V432.7Zm-2.145,4.157A2.3,2.3,0,1,0,74.92,439.2,2.235,2.235,0,0,0,77.231,436.86Z" transform="translate(-70.48 -430.375)"/><path class="a" d="M210.565,436.86a4.208,4.208,0,0,1-4.057,4.389,3.228,3.228,0,0,1-2.693-1.214v4.306H201.67V432.7h2.145v.981a3.23,3.23,0,0,1,2.693-1.214A4.208,4.208,0,0,1,210.565,436.86Zm-2.145,0a2.3,2.3,0,1,0-2.311,2.344A2.235,2.235,0,0,0,208.42,436.86Z" transform="translate(-191.066 -430.375)"/><path class="a" d="M341.745,432.7v8.447H339.6v-1.115a3.307,3.307,0,0,1-2.71,1.214,4.4,4.4,0,0,1,0-8.779,3.31,3.31,0,0,1,2.71,1.214V432.7ZM339.6,436.86a2.3,2.3,0,1,0-2.311,2.344A2.235,2.235,0,0,0,339.6,436.86Z" transform="translate(-312.943 -430.375)"/><path class="a" d="M468.674,435.45v2.059a2.225,2.225,0,0,0-2.527,2.287V443.9H464v-8.447h2.147v1.43A2.431,2.431,0,0,1,468.674,435.45Z" transform="translate(-434.142 -433.129)"/><path class="a" d="M543.142,409.25v3.458c0,.9.648.914,1.878.848V415.5c-3.009.333-4.021-.549-4.021-2.793V409.25H539.55v-2.062H541v-1.679l2.145-.649v2.328h1.878v2.062Z" transform="translate(-503.959 -404.86)"/><path class="a" d="M633.484,435.912v5.235H631.34v-4.969a1.548,1.548,0,0,0-1.646-1.712c-1.047,0-1.828.615-1.828,2.061v4.623H625.72V432.7h2.146v.931a2.829,2.829,0,0,1,2.477-1.164A3.108,3.108,0,0,1,633.484,435.912Z" transform="translate(-583.591 -430.375)"/><path class="a" d="M746.649,439.3a2.3,2.3,0,0,0,1.862-.831l1.729,1a4.2,4.2,0,0,1-3.624,1.779,4.391,4.391,0,1,1-.166-8.779,4.2,4.2,0,0,1,4.206,4.39,4.918,4.918,0,0,1-.083.881h-6.267A2.181,2.181,0,0,0,746.649,439.3Zm1.862-3.228a2.018,2.018,0,0,0-2.061-1.68,2.074,2.074,0,0,0-2.178,1.68Z" transform="translate(-691.103 -430.375)"/><path class="a" d="M874.046,435.45v2.059a2.225,2.225,0,0,0-2.527,2.287V443.9H869.37v-8.447h2.145v1.43A2.432,2.432,0,0,1,874.046,435.45Z" transform="translate(-808.754 -433.129)"/><rect class="a" width="2.125" height="2.125" rx="1.063" transform="translate(64.875 8.696)"/><g transform="translate(13.984 11.905)"><path class="a" d="M254.78,566.813V563.58h.531v2.725h1.316v.508Z" transform="translate(-254.78 -563.443)"/><path class="a" d="M282.92,577.178V575.76h.5v1.366a.543.543,0,0,0,.137.4.509.509,0,0,0,.379.14.559.559,0,0,0,.43-.169.7.7,0,0,0,.157-.5V575.76h.5v2.309h-.5v-.3a.79.79,0,0,1-.715.357.848.848,0,0,1-.644-.256A.979.979,0,0,1,282.92,577.178Z" transform="translate(-280.785 -574.699)"/><path class="a" d="M315,578.069l.87-1.186-.823-1.123h.577l.531.73.531-.73h.582l-.821,1.127.861,1.181h-.577l-.571-.789-.577.789Z" transform="translate(-310.431 -574.699)"/><path class="a" d="M349.27,577.178V575.76h.5v1.366a.546.546,0,0,0,.137.4.512.512,0,0,0,.379.14.559.559,0,0,0,.429-.169.707.707,0,0,0,.156-.5V575.76h.5v2.309h-.5v-.3a.8.8,0,0,1-.715.357.847.847,0,0,1-.643-.256A.971.971,0,0,1,349.27,577.178Z" transform="translate(-342.101 -574.699)"/><path class="a" d="M384.59,577.579V575.27h.5v.386a.7.7,0,0,1,.712-.426v.536h-.064a.708.708,0,0,0-.437.142.582.582,0,0,0-.212.508v1.165Z" transform="translate(-374.741 -574.209)"/><path class="a" d="M402.45,575.76H403l.687,1.675.59-1.675h.531l-.886,2.383a1.1,1.1,0,0,1-1.047.852H402.8v-.466h.05a.518.518,0,0,0,.325-.1.809.809,0,0,0,.239-.356l.022-.046Z" transform="translate(-391.246 -574.699)"/><path class="a" d="M453.22,566.813V563.58h.531v2.725h1.316v.508Z" transform="translate(-438.163 -563.443)"/><path class="a" d="M481.39,563.112a.3.3,0,0,1,.093-.221.314.314,0,0,1,.455,0,.3.3,0,0,1,.09.221.31.31,0,0,1-.1.228.3.3,0,0,1-.222.092.316.316,0,0,1-.319-.318Zm.07,2.973v-2.309h.5v2.309Z" transform="translate(-464.196 -562.715)"/><path class="a" d="M493,575.76h.546l.647,1.754.64-1.754h.546l-.9,2.309H493.9Z" transform="translate(-474.925 -574.699)"/><path class="a" d="M527.5,563.112a.3.3,0,0,1,.093-.221.314.314,0,0,1,.455,0,.3.3,0,0,1,.093.221.31.31,0,0,1-.1.228.3.3,0,0,1-.222.092.316.316,0,0,1-.322-.32Zm.07,2.973v-2.309h.5v2.309Z" transform="translate(-506.807 -562.715)"/><path class="a" d="M542.6,577.319v-2.309h.5v.3a.794.794,0,0,1,.717-.356.844.844,0,0,1,.643.256.971.971,0,0,1,.243.7v1.418h-.5v-1.366a.539.539,0,0,0-.139-.4.509.509,0,0,0-.379-.14.555.555,0,0,0-.43.169.7.7,0,0,0-.157.5v1.238Z" transform="translate(-520.762 -573.949)"/><path class="a" d="M575.627,576.179a1.157,1.157,0,0,1,.336-.841,1.1,1.1,0,0,1,.83-.348.922.922,0,0,1,.8.4v-.343h.487v2.2a.989.989,0,0,1-.345.807,1.281,1.281,0,0,1-.841.281,1.121,1.121,0,0,1-1.093-.564l.429-.244a.691.691,0,0,0,.674.351.721.721,0,0,0,.505-.167.6.6,0,0,0,.182-.466v-.279a.926.926,0,0,1-.8.4,1.113,1.113,0,0,1-.827-.344A1.176,1.176,0,0,1,575.627,576.179Zm.5,0a.7.7,0,0,0,.207.516.729.729,0,0,0,.526.207.71.71,0,0,0,.523-.207.738.738,0,0,0,0-1.035.709.709,0,0,0-.523-.207.728.728,0,0,0-.526.207A.7.7,0,0,0,576.125,576.179Z" transform="translate(-551.282 -573.986)"/><path class="a" d="M629.05,565.314l.455-.266a.771.771,0,0,0,.8.543.743.743,0,0,0,.447-.114.367.367,0,0,0,.152-.31.339.339,0,0,0-.162-.3,2.493,2.493,0,0,0-.573-.232,3.928,3.928,0,0,1-.379-.132,1.883,1.883,0,0,1-.3-.164.751.751,0,0,1-.313-.651.83.83,0,0,1,.3-.678,1.1,1.1,0,0,1,.734-.253,1.2,1.2,0,0,1,1.125.711l-.446.258a.7.7,0,0,0-.683-.451.585.585,0,0,0-.37.108.35.35,0,0,0-.139.291.335.335,0,0,0,.139.283,1.806,1.806,0,0,0,.513.221c.136.046.227.076.268.093s.121.042.241.09a.856.856,0,0,1,.234.13.759.759,0,0,1,.334.612v.054a.849.849,0,0,1-.318.7,1.229,1.229,0,0,1-.822.259,1.43,1.43,0,0,1-.79-.211A1.1,1.1,0,0,1,629.05,565.314Z" transform="translate(-600.652 -562.679)"/><path class="a" d="M665.27,563.159a.3.3,0,0,1,.093-.222.319.319,0,0,1,.546.222.309.309,0,0,1-.1.228.3.3,0,0,1-.222.093.316.316,0,0,1-.319-.318Zm.07,2.973v-2.309h.5v2.309Z" transform="translate(-634.124 -562.762)"/><path class="a" d="M680.37,577.317v-2.309h.5v.278a.74.74,0,0,1,.661-.338.7.7,0,0,1,.656.365.771.771,0,0,1,.706-.365.827.827,0,0,1,.633.256.956.956,0,0,1,.24.683v1.432h-.5v-1.4a.534.534,0,0,0-.119-.37.42.42,0,0,0-.329-.133.459.459,0,0,0-.37.152.678.678,0,0,0-.133.455v1.29h-.5v-1.394a.555.555,0,0,0-.113-.371.4.4,0,0,0-.319-.132.476.476,0,0,0-.373.159.661.661,0,0,0-.141.455v1.29Z" transform="translate(-648.078 -573.946)"/><path class="a" d="M732.12,578.253V575.02h.5v.332a.932.932,0,0,1,.809-.392,1.089,1.089,0,0,1,.811.356,1.265,1.265,0,0,1,0,1.722,1.087,1.087,0,0,1-.811.353.943.943,0,0,1-.809-.388v1.251Zm.5-2.079a.736.736,0,0,0,.207.531.759.759,0,0,0,1.044,0,.738.738,0,0,0,.207-.531.712.712,0,0,0-.207-.525.743.743,0,0,0-1.044,0,.71.71,0,0,0-.207.527Z" transform="translate(-695.902 -573.959)"/><path class="a" d="M770.45,565.14v-3.37h.5v3.37Z" transform="translate(-731.324 -561.77)"/><path class="a" d="M783.7,563.112a.3.3,0,0,1,.093-.221.314.314,0,0,1,.455,0,.3.3,0,0,1,.093.221.31.31,0,0,1-.1.228.3.3,0,0,1-.222.092.316.316,0,0,1-.322-.32Zm.07,2.973v-2.309h.5v2.309Z" transform="translate(-743.549 -562.715)"/><path class="a" d="M796.36,564.238v-.476h.352v-.045q0-.937,1.044-.938a2.351,2.351,0,0,1,.511.058v.455a3.66,3.66,0,0,0-.511-.036.659.659,0,0,0-.415.105.432.432,0,0,0-.13.356v.045h1.265v2.309h-.5v-1.834h-.766v1.833h-.5v-1.833Z" transform="translate(-755.267 -562.703)"/><path class="a" d="M830.134,576.2a1.182,1.182,0,0,1,.341-.863,1.161,1.161,0,0,1,.876-.35,1.084,1.084,0,0,1,.835.356,1.227,1.227,0,0,1,.326.863,1.475,1.475,0,0,1-.018.208h-1.84a.634.634,0,0,0,.252.4.81.81,0,0,0,.488.142.682.682,0,0,0,.595-.287l.411.239a1.132,1.132,0,0,1-1.01.5,1.243,1.243,0,0,1-.91-.343A1.182,1.182,0,0,1,830.134,576.2Zm.516-.193h1.357a.688.688,0,0,0-.227-.417.657.657,0,0,0-.431-.146.707.707,0,0,0-.46.152.681.681,0,0,0-.239.41Z" transform="translate(-786.478 -573.986)"/><path class="a" d="M865.345,565.66a1.2,1.2,0,0,1,.335-.863,1.089,1.089,0,0,1,.814-.351.941.941,0,0,1,.807.388V563.58h.5v3.233h-.5v-.332a.937.937,0,0,1-.807.393,1.089,1.089,0,0,1-.814-.352A1.2,1.2,0,0,1,865.345,565.66Zm.5,0a.734.734,0,0,0,.208.531.759.759,0,0,0,1.043,0,.735.735,0,0,0,.208-.531.71.71,0,0,0-.208-.525.743.743,0,0,0-1.043,0A.709.709,0,0,0,865.843,565.66Z" transform="translate(-819.018 -563.443)"/></g></svg>