<svg id="Logo_with_Tagline" data-name="Logo with Tagline" xmlns="http://www.w3.org/2000/svg" width="281.983" height="68.432" viewBox="0 0 281.983 68.432">
  <path id="Path_92" data-name="Path 92" d="M107.922,433.45V469H98.894v-4.691c-2.52,3.152-6.3,5.109-11.407,5.109-9.309,0-17.008-8.047-17.008-18.473s7.7-18.477,17.008-18.477c5.109,0,8.887,1.961,11.407,5.109V433.45Zm-9.028,17.5c0-5.879-4.129-9.867-9.727-9.867-5.531,0-9.66,3.988-9.66,9.867s4.129,9.867,9.66,9.867c5.6,0,9.727-3.988,9.727-9.867Z" transform="translate(-70.48 -423.653)" fill="#f5f5f5"/>
  <path id="Path_93" data-name="Path 93" d="M239.108,450.947c0,10.426-7.7,18.473-17.075,18.473-5.109,0-8.817-1.887-11.336-5.109v18.125H201.67V433.45H210.7v4.129c2.52-3.219,6.227-5.109,11.336-5.109C231.409,432.47,239.108,440.517,239.108,450.947Zm-9.028,0c0-5.879-4.129-9.867-9.727-9.867-5.528,0-9.657,3.988-9.657,9.867s4.129,9.867,9.657,9.867C225.952,460.814,230.081,456.825,230.081,450.947Z" transform="translate(-159.777 -423.653)" fill="#f5f5f5"/>
  <path id="Path_94" data-name="Path 94" d="M370.288,433.45V469h-9.028v-4.691c-2.52,3.152-6.3,5.109-11.406,5.109-9.305,0-17-8.047-17-18.473s7.712-18.477,17-18.477c5.109,0,8.887,1.961,11.406,5.109V433.45Zm-9.028,17.5c0-5.879-4.129-9.867-9.727-9.867-5.528,0-9.657,3.988-9.657,9.867s4.129,9.867,9.657,9.867C357.132,460.814,361.261,456.825,361.261,450.947Z" transform="translate(-249.067 -423.653)" fill="#f5f5f5"/>
  <path id="Path_95" data-name="Path 95" d="M483.674,435.45v8.667c-4.79-.281-10.637,2.28-10.637,9.628V471.03H464V435.479h9.037V441.5C474.857,436.74,479.267,435.45,483.674,435.45Z" transform="translate(-338.336 -425.682)" fill="#f5f5f5"/>
  <path id="Path_96" data-name="Path 96" d="M554.667,423.337v14.555c0,3.778,2.727,3.848,7.907,3.567v8.188c-12.665,1.4-16.925-2.309-16.925-11.755V423.337h-6.1v-8.679h6.09V407.59l9.027-2.73v9.8h7.907v8.679Z" transform="translate(-389.761 -404.86)" fill="#f5f5f5"/>
  <path id="Path_97" data-name="Path 97" d="M658.4,446.958v22.034h-9.028V448.076c0-4.758-2.874-7.207-6.93-7.207-4.407,0-7.7,2.59-7.7,8.676V469H625.72V433.45h9.031v3.918c2.1-3.149,5.748-4.9,10.426-4.9C652.592,432.47,658.4,437.65,658.4,446.958Z" transform="translate(-448.414 -423.653)" fill="#f5f5f5"/>
  <path id="Path_98" data-name="Path 98" d="M761.376,461.232a9.68,9.68,0,0,0,7.837-3.5l7.277,4.2c-3.289,4.761-8.536,7.488-15.254,7.488-11.758,0-19.176-8.047-19.176-18.473s7.488-18.477,18.477-18.477c10.356,0,17.7,8.188,17.7,18.477a20.768,20.768,0,0,1-.351,3.707h-26.38C752.767,459.275,756.615,461.232,761.376,461.232Zm7.837-13.584a8.492,8.492,0,0,0-8.676-7.07c-4.828,0-8.117,2.59-9.168,7.07Z" transform="translate(-527.603 -423.653)" fill="#f5f5f5"/>
  <path id="Path_99" data-name="Path 99" d="M889.05,435.45v8.667c-4.79-.281-10.637,2.28-10.637,9.628V471.03H869.37V435.479H878.4V441.5C880.215,436.74,884.625,435.45,889.05,435.45Z" transform="translate(-614.259 -425.682)" fill="#f5f5f5"/>
  <rect id="Rectangle_799" data-name="Rectangle 799" width="8.944" height="8.944" rx="4.472" transform="translate(273.039 36.602)" fill="#f5f5f5"/>
  <path id="Path_100" data-name="Path 100" d="M254.78,577.187V563.58h2.235v11.47h5.54v2.136Z" transform="translate(-195.927 -512.896)" fill="#f5f5f5"/>
  <path id="Path_101" data-name="Path 101" d="M282.92,581.728V575.76h2.1v5.748a2.284,2.284,0,0,0,.578,1.673,2.143,2.143,0,0,0,1.6.588,2.351,2.351,0,0,0,1.807-.712,2.964,2.964,0,0,0,.661-2.088V575.76h2.095v9.717h-2.1v-1.245a3.326,3.326,0,0,1-3.008,1.5,3.57,3.57,0,0,1-2.711-1.076A4.121,4.121,0,0,1,282.92,581.728Z" transform="translate(-215.081 -521.186)" fill="#f5f5f5"/>
  <path id="Path_102" data-name="Path 102" d="M315,585.477l3.663-4.991L315.2,575.76h2.43l2.235,3.075,2.235-3.075h2.449l-3.455,4.745,3.624,4.972H322.29l-2.4-3.321-2.43,3.321Z" transform="translate(-236.917 -521.186)" fill="#f5f5f5"/>
  <path id="Path_103" data-name="Path 103" d="M349.27,581.728V575.76h2.095v5.748a2.3,2.3,0,0,0,.578,1.67,2.152,2.152,0,0,0,1.6.588,2.354,2.354,0,0,0,1.807-.712,2.979,2.979,0,0,0,.658-2.088V575.76h2.1v9.717H356v-1.245a3.347,3.347,0,0,1-3.008,1.5,3.567,3.567,0,0,1-2.708-1.076A4.086,4.086,0,0,1,349.27,581.728Z" transform="translate(-260.244 -521.186)" fill="#f5f5f5"/>
  <path id="Path_104" data-name="Path 104" d="M384.59,585.117V575.4h2.1v1.625a2.956,2.956,0,0,1,3-1.795v2.258h-.268a2.979,2.979,0,0,0-1.839.6,2.452,2.452,0,0,0-.891,2.14v4.9Z" transform="translate(-284.285 -520.825)" fill="#f5f5f5"/>
  <path id="Path_105" data-name="Path 105" d="M402.45,575.76h2.3l2.893,7.051,2.484-7.051h2.235l-3.73,10.03q-1.328,3.583-4.407,3.586H403.9v-1.964h.211a2.178,2.178,0,0,0,1.367-.418,3.4,3.4,0,0,0,1.006-1.5l.093-.192Z" transform="translate(-296.441 -521.186)" fill="#f5f5f5"/>
  <path id="Path_106" data-name="Path 106" d="M453.22,577.187V563.58h2.235v11.47H461v2.136Z" transform="translate(-330.999 -512.896)" fill="#f5f5f5"/>
  <path id="Path_107" data-name="Path 107" d="M481.39,564.136a1.277,1.277,0,0,1,.39-.932,1.322,1.322,0,0,1,1.916,0,1.277,1.277,0,0,1,.38.932,1.3,1.3,0,0,1-.409.958,1.278,1.278,0,0,1-.936.39,1.332,1.332,0,0,1-1.341-1.338Zm.294,12.515v-9.717h2.1v9.717Z" transform="translate(-350.173 -512.36)" fill="#f5f5f5"/>
  <path id="Path_108" data-name="Path 108" d="M493,575.76h2.3l2.724,7.383,2.692-7.383h2.3l-3.784,9.717h-2.43Z" transform="translate(-358.076 -521.186)" fill="#f5f5f5"/>
  <path id="Path_109" data-name="Path 109" d="M527.5,564.136a1.277,1.277,0,0,1,.39-.932,1.322,1.322,0,0,1,1.916,0,1.276,1.276,0,0,1,.39.932,1.3,1.3,0,0,1-.409.958,1.278,1.278,0,0,1-.932.39,1.332,1.332,0,0,1-1.354-1.348Zm.294,12.515v-9.717h2.1v9.717Z" transform="translate(-381.559 -512.36)" fill="#f5f5f5"/>
  <path id="Path_110" data-name="Path 110" d="M542.6,584.925v-9.717h2.095v1.242a3.341,3.341,0,0,1,3.018-1.5,3.554,3.554,0,0,1,2.708,1.076,4.085,4.085,0,0,1,1.022,2.928v5.968h-2.1v-5.748a2.267,2.267,0,0,0-.584-1.67,2.142,2.142,0,0,0-1.6-.588,2.334,2.334,0,0,0-1.807.712,2.954,2.954,0,0,0-.661,2.085v5.211Z" transform="translate(-391.837 -520.634)" fill="#f5f5f5"/>
  <path id="Path_111" data-name="Path 111" d="M575.627,580a4.873,4.873,0,0,1,1.415-3.541,4.643,4.643,0,0,1,3.493-1.466,3.883,3.883,0,0,1,3.379,1.7v-1.443h2.05v9.261a4.16,4.16,0,0,1-1.453,3.4,5.393,5.393,0,0,1-3.538,1.185q-3.356,0-4.6-2.376l1.8-1.028a2.906,2.906,0,0,0,2.836,1.478,3.037,3.037,0,0,0,2.127-.706,2.536,2.536,0,0,0,.766-1.961v-1.175a3.9,3.9,0,0,1-3.369,1.683,4.687,4.687,0,0,1-3.481-1.45A4.952,4.952,0,0,1,575.628,580Zm2.1,0a2.947,2.947,0,0,0,.872,2.171,3.066,3.066,0,0,0,2.213.872,2.986,2.986,0,0,0,2.2-.872,3.107,3.107,0,0,0,0-4.356,2.986,2.986,0,0,0-2.2-.872,3.066,3.066,0,0,0-2.213.872A2.963,2.963,0,0,0,577.725,580Z" transform="translate(-414.317 -520.661)" fill="#f5f5f5"/>
  <path id="Path_112" data-name="Path 112" d="M629.05,573.53l1.916-1.121a3.243,3.243,0,0,0,3.385,2.286,3.126,3.126,0,0,0,1.881-.479,1.542,1.542,0,0,0,.639-1.3,1.428,1.428,0,0,0-.683-1.277,10.481,10.481,0,0,0-2.411-.977,16.633,16.633,0,0,1-1.6-.556,7.909,7.909,0,0,1-1.252-.69,3.162,3.162,0,0,1-1.319-2.74,3.493,3.493,0,0,1,1.277-2.855,4.63,4.63,0,0,1,3.091-1.063,5.032,5.032,0,0,1,4.736,2.992l-1.878,1.086a2.937,2.937,0,0,0-2.874-1.9,2.459,2.459,0,0,0-1.558.453,1.472,1.472,0,0,0-.584,1.226,1.411,1.411,0,0,0,.584,1.191,7.612,7.612,0,0,0,2.159.932c.575.192.958.319,1.127.39s.511.179,1.016.38a3.6,3.6,0,0,1,.987.549,3.2,3.2,0,0,1,1.405,2.574v.227a3.573,3.573,0,0,1-1.338,2.931,5.173,5.173,0,0,1-3.462,1.092,6.019,6.019,0,0,1-3.324-.888A4.631,4.631,0,0,1,629.05,573.53Z" transform="translate(-450.681 -512.333)" fill="#f5f5f5"/>
  <path id="Path_113" data-name="Path 113" d="M665.27,564.171a1.277,1.277,0,0,1,.39-.932,1.344,1.344,0,0,1,2.3.932,1.3,1.3,0,0,1-.409.958,1.277,1.277,0,0,1-.932.39,1.331,1.331,0,0,1-1.344-1.338Zm.294,12.515v-9.717h2.1v9.717Z" transform="translate(-475.335 -512.394)" fill="#f5f5f5"/>
  <path id="Path_114" data-name="Path 114" d="M680.37,584.923v-9.717h2.095v1.169a3.11,3.11,0,0,1,2.781-1.424,2.966,2.966,0,0,1,2.759,1.536,3.243,3.243,0,0,1,2.97-1.536,3.481,3.481,0,0,1,2.663,1.076,4.027,4.027,0,0,1,1.009,2.874v6.026h-2.1v-5.895a2.251,2.251,0,0,0-.5-1.558,1.769,1.769,0,0,0-1.386-.559,1.932,1.932,0,0,0-1.555.639,2.854,2.854,0,0,0-.559,1.916V584.9h-2.1v-5.866a2.335,2.335,0,0,0-.476-1.562,1.671,1.671,0,0,0-1.344-.556,2.006,2.006,0,0,0-1.571.667,2.778,2.778,0,0,0-.594,1.916v5.429Z" transform="translate(-485.613 -520.632)" fill="#f5f5f5"/>
  <path id="Path_115" data-name="Path 115" d="M732.12,588.822V575.215h2.1v1.4a3.923,3.923,0,0,1,3.407-1.651,4.583,4.583,0,0,1,3.414,1.5,5.323,5.323,0,0,1,0,7.249,4.573,4.573,0,0,1-3.414,1.485,3.969,3.969,0,0,1-3.407-1.632v5.266Zm2.1-8.75a3.1,3.1,0,0,0,.872,2.235,3.193,3.193,0,0,0,4.394,0,3.1,3.1,0,0,0,.872-2.235,3,3,0,0,0-.872-2.21,3.129,3.129,0,0,0-4.394,0,3,3,0,0,0-.872,2.219Z" transform="translate(-520.837 -520.641)" fill="#f5f5f5"/>
  <path id="Path_116" data-name="Path 116" d="M770.45,575.955V561.77h2.092v14.185Z" transform="translate(-546.927 -511.664)" fill="#f5f5f5"/>
  <path id="Path_117" data-name="Path 117" d="M783.7,564.136a1.276,1.276,0,0,1,.39-.932,1.322,1.322,0,0,1,1.916,0,1.277,1.277,0,0,1,.39.932,1.3,1.3,0,0,1-.409.958,1.278,1.278,0,0,1-.932.39,1.332,1.332,0,0,1-1.354-1.348Zm.294,12.515v-9.717h2.1v9.717Z" transform="translate(-555.946 -512.36)" fill="#f5f5f5"/>
  <path id="Path_118" data-name="Path 118" d="M796.36,568.917v-2h1.482v-.188q0-3.947,4.394-3.947a9.9,9.9,0,0,1,2.152.243v1.916a15.4,15.4,0,0,0-2.152-.153,2.772,2.772,0,0,0-1.747.444,1.821,1.821,0,0,0-.549,1.5v.192h5.323v9.717h-2.1v-7.718H799.94v7.715h-2.1v-7.715Z" transform="translate(-564.563 -512.351)" fill="#f5f5f5"/>
  <path id="Path_119" data-name="Path 119" d="M830.135,580.1a4.979,4.979,0,0,1,1.434-3.634,4.886,4.886,0,0,1,3.688-1.475,4.566,4.566,0,0,1,3.513,1.5,5.164,5.164,0,0,1,1.373,3.634,6.16,6.16,0,0,1-.073.875h-7.744a2.663,2.663,0,0,0,1.06,1.7,3.412,3.412,0,0,0,2.053.6,2.874,2.874,0,0,0,2.5-1.207l1.728,1.006a4.765,4.765,0,0,1-4.25,2.117,5.233,5.233,0,0,1-3.832-1.443A4.975,4.975,0,0,1,830.135,580.1Zm2.171-.814h5.713a2.9,2.9,0,0,0-.958-1.756,2.762,2.762,0,0,0-1.814-.616,2.976,2.976,0,0,0-1.935.639,2.874,2.874,0,0,0-1.006,1.724Z" transform="translate(-587.552 -520.661)" fill="#f5f5f5"/>
  <path id="Path_120" data-name="Path 120" d="M865.346,572.336a5.044,5.044,0,0,1,1.411-3.634,4.583,4.583,0,0,1,3.427-1.475,3.963,3.963,0,0,1,3.4,1.632V563.58h2.095v13.607h-2.095v-1.4a3.941,3.941,0,0,1-3.4,1.654,4.585,4.585,0,0,1-3.426-1.482A5.039,5.039,0,0,1,865.346,572.336Zm2.095,0a3.091,3.091,0,0,0,.875,2.235,3.193,3.193,0,0,0,4.391,0,3.091,3.091,0,0,0,.875-2.235,2.985,2.985,0,0,0-.875-2.21,3.126,3.126,0,0,0-4.391,0A2.985,2.985,0,0,0,867.441,572.336Z" transform="translate(-611.519 -512.896)" fill="#f5f5f5"/>
</svg>
