<?xml version="1.0" standalone="no"?>
<!DOCTYPE svg PUBLIC "-//W3C//DTD SVG 1.0//EN" "http://www.w3.org/TR/2001/REC-SVG-20010904/DTD/svg10.dtd">
<svg xmlns="http://www.w3.org/2000/svg" xmlns:xlink="http://www.w3.org/1999/xlink" id="body_1" width="61" height="46">

<g transform="matrix(0.9833952 0 0 0.9833952 -0 12.846445)">
	<g>
	</g>
    <path d="M15.26 13.18L11.77 13.18L11.17 14.89L9.75 14.89L12.75 6.54L14.33 6.54L17.33 14.89L15.86 14.89L15.26 13.18zM13.52 8.18L12.160001 12.06L14.880001 12.06z" stroke="none" fill="#008D36" fill-rule="nonzero" />
	<g>
	</g>
    <path d="M20.08 14.89L18.71 14.89L18.71 8.28L20.08 8.28L20.08 9.28C 20.487276 8.570302 21.263594 8.154972 22.08 8.21L22.08 8.21L22.08 9.59L21.74 9.59C 20.74 9.59 20.11 10.01 20.11 11.41L20.11 11.41L20.08 14.89z" stroke="none" fill="#008D36" fill-rule="nonzero" />
	<g>
	</g>
    <path d="M24.79 14.89L23.42 14.89L23.42 8.28L24.79 8.28L24.79 9.28C 25.202366 8.575565 25.975151 8.162126 26.79 8.21L26.79 8.21L26.79 9.59L26.44 9.59C 25.44 9.59 24.810001 10.01 24.810001 11.41L24.810001 11.41L24.79 14.89z" stroke="none" fill="#008D36" fill-rule="nonzero" />
	<g>
	</g>
    <path d="M28 6.53C 27.999847 6.219078 28.165634 5.931709 28.434875 5.776204C 28.704117 5.620699 29.035881 5.620699 29.305122 5.776204C 29.574364 5.9317093 29.74015 6.219078 29.74 6.53C 29.74015 6.8409224 29.574364 7.1282916 29.305122 7.2837963C 29.035881 7.4393015 28.704117 7.4393015 28.434875 7.2837963C 28.165634 7.128291 27.999847 6.8409224 28 6.53zM28.18 8.280001L29.550001 8.280001L29.550001 14.890001L28.14 14.890001z" stroke="none" fill="#008D36" fill-rule="nonzero" />
	<g>
	</g>
    <path d="M32.1 8.28L34 13.66L35.87 8.28L37.32 8.28L34.81 14.889999L33.14 14.889999L30.64 8.279999L32.1 8.28z" stroke="none" fill="#008D36" fill-rule="nonzero" />
	<g>
	</g>
    <path d="M41.28 15C 40.377968 15.024717 39.507427 14.667439 38.882824 14.016178C 38.258224 13.364916 37.937622 12.48021 38 11.58C 37.927113 10.6746025 38.247356 9.781623 38.87903 9.128898C 39.510696 8.476172 40.3927 8.126829 41.3 8.17C 42.169525 8.13189 43.01458 8.4634495 43.626194 9.082684C 44.237804 9.701919 44.558872 10.551015 44.51 11.42C 44.52498 11.643084 44.52498 11.866917 44.51 12.09L44.51 12.09L39.4 12.09C 39.415615 12.571929 39.62288 13.027708 39.975815 13.356241C 40.328754 13.684773 40.79819 13.858901 41.280003 13.84C 41.940914 13.888386 42.562534 13.5217905 42.840004 12.92L42.840004 12.92L44.310005 12.92C 43.892616 14.223259 42.646187 15.078894 41.28 15zM39.41 11L43.07 11C 43.057667 10.529126 42.85276 10.083915 42.503117 9.768287C 42.15347 9.45266 41.68968 9.294237 41.22 9.33C 40.27068 9.322248 39.478535 10.053121 39.41 11z" stroke="none" fill="#008D36" fill-rule="nonzero" />
	<g>
	</g>
    <path d="M48.62 8.17C 49.488968 8.157356 50.320717 8.52216 50.899998 9.17L50.899998 9.17L50.899998 6L52.28 6L52.28 14.88L50.9 14.88L50.9 13.88C 50.36739 14.607315 49.511097 15.026112 48.61 15C 47.732018 14.980535 46.90062 14.601093 46.31063 13.950594C 45.720642 13.300094 45.423923 12.43571 45.49 11.559999C 45.42331 10.687292 45.72273 9.826182 46.316475 9.183117C 46.910217 8.5400505 47.74475 8.173014 48.62 8.17zM48.899998 9.360001C 48.33494 9.357444 47.795174 9.594033 47.414124 10.011281C 47.033077 10.42853 46.84631 10.987495 46.899998 11.550001C 46.850273 12.118457 47.03627 12.682377 47.414433 13.109702C 47.7926 13.537026 48.329712 13.790224 48.899998 13.810001C 49.46662 13.795441 50.002213 13.548053 50.380657 13.126087C 50.7591 12.704121 50.94696 12.144865 50.899998 11.580002C 50.962803 11.01261 50.78016 10.445422 50.398064 10.0212965C 50.015972 9.597172 49.470848 9.356536 48.9 9.36z" stroke="none" fill="#008D36" fill-rule="nonzero" />
</g>
</svg>