<?xml version="1.0" standalone="no"?>
<!DOCTYPE svg PUBLIC "-//W3C//DTD SVG 1.0//EN" "http://www.w3.org/TR/2001/REC-SVG-20010904/DTD/svg10.dtd">
<svg xmlns="http://www.w3.org/2000/svg" xmlns:xlink="http://www.w3.org/1999/xlink" id="body_1" width="61" height="46">

<g transform="matrix(0.9833952 0 0 0.9833952 -0 12.846445)">
	<g>
	</g>
    <path d="M10.25 11.61L6.76 11.61L6.1600003 13.309999L4.73 13.309999L7.72 5L9.3 5L12.3 13.35L10.85 13.35L10.25 11.61zM8.51 6.6099997L7.14 10.49L9.86 10.49z" stroke="none" fill="#E94E1B" fill-rule="nonzero" />
	<g>
	</g>
    <path d="M12.91 6.7L14.3 6.7L15.68 12L17.09 6.7L18.51 6.7L19.86 12L21.22 6.7L22.57 6.7L20.52 13.309999L19.08 13.309999L17.75 8.43L16.42 13.31L15 13.31L12.91 6.7z" stroke="none" fill="#E94E1B" fill-rule="nonzero" />
	<g>
	</g>
    <path d="M26.36 6.59C 27.250385 6.560603 28.101276 6.958181 28.650002 7.6600003L28.650002 7.6600003L28.650002 6.6600003L30 6.6600003L30 13.27L28.65 13.27L28.65 12.27C 28.095032 12.977359 27.238825 13.381371 26.34 13.360001C 25.48209 13.331591 24.671562 12.959701 24.090511 12.327879C 23.50946 11.696057 23.206612 10.857284 23.25 10C 23.177694 9.127428 23.471825 8.26413 24.061829 7.6172104C 24.651834 6.970292 25.484476 6.5981274 26.36 6.59zM26.650002 7.78C 26.083027 7.7771573 25.541489 8.015096 25.160095 8.434629C 24.7787 8.854162 24.593296 9.41586 24.650002 9.9800005C 24.603167 10.546809 24.790474 11.108074 25.168325 11.533156C 25.546177 11.958239 26.08161 12.210057 26.650002 12.2300005C 27.222801 12.233802 27.769737 11.991821 28.152187 11.56539C 28.534637 11.138958 28.715889 10.569009 28.650002 10C 28.712807 9.432608 28.53016 8.865418 28.148066 8.441294C 27.76597 8.017169 27.220848 7.7765346 26.65 7.78z" stroke="none" fill="#E94E1B" fill-rule="nonzero" />
	<g>
	</g>
    <path d="M31.77 5C 31.77551 4.5208526 32.167427 4.136364 32.646595 4.1400256C 33.12576 4.1436872 33.511757 4.5341206 33.50994 5.013296C 33.508125 5.4924717 33.119183 5.879969 32.64 5.88C 32.40752 5.8800154 32.184704 5.786983 32.021255 5.6216574C 31.857811 5.4563313 31.767332 5.2324657 31.77 5zM31.94 6.75L33.31 6.75L33.31 13.360001L31.94 13.360001z" stroke="none" fill="#E94E1B" fill-rule="nonzero" />
	<g>
	</g>
    <path d="M35.44 7.82L34.66 7.82L34.66 6.7L35.44 6.7L35.44 5.06L36.82 5.06L36.82 6.7L38.42 6.7L38.42 7.82L36.82 7.82L36.82 11.47C 36.82 11.97 37.01 12.17 37.579998 12.17L37.579998 12.17L38.42 12.17L38.42 13.31L37.34 13.31C 36.170002 13.31 35.44 12.820001 35.44 11.47L35.44 11.47L35.44 7.82z" stroke="none" fill="#E94E1B" fill-rule="nonzero" />
	<g>
	</g>
    <path d="M39.61 5C 39.607296 4.7657895 39.699142 4.540381 39.864765 4.3747582C 40.030388 4.2091355 40.255795 4.1172915 40.49 4.12C 40.976013 4.12 41.370003 4.5139894 41.370003 5C 41.370003 5.4860106 40.976013 5.88 40.49 5.88C 40.255795 5.8827085 40.030388 5.7908645 39.864765 5.6252418C 39.699142 5.459619 39.607296 5.2342105 39.61 5zM39.79 6.75L41.16 6.75L41.16 13.360001L39.79 13.360001z" stroke="none" fill="#E94E1B" fill-rule="nonzero" />
	<g>
	</g>
    <path d="M47.76 9.62C 47.76 8.4 47.1 7.7799997 46.1 7.7799997C 45.1 7.7799997 44.44 8.4 44.44 9.62L44.44 9.62L44.44 13.309999L43.07 13.309999L43.07 6.7L44.44 6.7L44.44 7.46C 44.94102 6.88278 45.67614 6.563003 46.44 6.59C 47.1912 6.545306 47.924248 6.832103 48.44568 7.3746996C 48.96711 7.9172964 49.22453 8.661169 49.149998 9.41L49.149998 9.41L49.149998 13.309999L47.76 13.309999L47.76 9.62z" stroke="none" fill="#E94E1B" fill-rule="nonzero" />
	<g>
	</g>
    <path d="M53.63 6.59C 54.519722 6.563843 55.36922 6.9607706 55.920002 7.6600003L55.920002 7.6600003L55.920002 6.6600003L57.3 6.6600003L57.3 13.38C 57.34584 14.242874 57.017395 15.083612 56.398777 15.686909C 55.780163 16.290205 54.93145 16.597464 54.07 16.53C 52.31 16.53 51 15.660001 50.829998 14.190001L50.829998 14.190001L52.19 14.190001C 52.48697 14.952304 53.25609 15.422775 54.07 15.34C 54.597996 15.375845 55.113853 15.1708355 55.47321 14.782342C 55.832565 14.393848 55.99682 13.8636055 55.92 13.34L55.92 13.34L55.92 12.31C 55.3765 13.022972 54.526375 13.435041 53.629997 13.42C 52.755753 13.400223 51.92768 13.023527 51.33832 12.377497C 50.748962 11.731466 50.449657 10.872387 50.51 10C 50.437572 9.125707 50.73303 8.260817 51.325233 7.6135693C 51.917435 6.9663215 52.75273 6.59536 53.63 6.59zM53.920002 7.78C 53.353024 7.7771573 52.811485 8.015096 52.43009 8.434629C 52.0487 8.854162 51.863297 9.41586 51.920002 9.9800005C 51.876076 10.546143 52.0644 11.105787 52.441654 11.530199C 52.81891 11.954611 53.352615 12.20725 53.920002 12.2300005C 54.4928 12.233802 55.039738 11.991821 55.422188 11.56539C 55.804638 11.138958 55.98589 10.569009 55.920002 10C 55.982803 9.432608 55.800156 8.865418 55.41806 8.441293C 55.035965 8.017168 54.490845 7.776534 53.92 7.78z" stroke="none" fill="#E94E1B" fill-rule="nonzero" />
</g>
</svg>