<svg xmlns="http://www.w3.org/2000/svg" width="25.431" height="27.126" viewBox="0 0 25.431 27.126">
  <g id="building" transform="translate(0 0)">
    <path id="Path_945" data-name="Path 945" d="M25.029.127a.848.848,0,0,1,.4.72V26.278a.848.848,0,0,1-.848.848H19.5a.848.848,0,0,1-.848-.848V23.735h-1.7v2.543a.848.848,0,0,1-.848.848H.848A.848.848,0,0,1,0,26.278V16.954a.848.848,0,0,1,.58-.8l9.592-3.2V7.629a.848.848,0,0,1,.468-.758L24.2.09a.848.848,0,0,1,.826.037ZM10.172,14.74,1.7,17.564v7.867h8.477Zm1.7,10.691h3.391V22.887a.848.848,0,0,1,.848-.848H19.5a.848.848,0,0,1,.848.848v2.543h3.391V2.219L11.868,8.153Z" transform="translate(0 0)" fill="#c8c8c8" fill-rule="evenodd"/>
    <path id="Path_946" data-name="Path 946" d="M4.5,20.313H6.2v1.7H4.5Zm3.391,0h1.7v1.7h-1.7ZM4.5,23.7H6.2v1.7H4.5Zm3.391,0h1.7v1.7h-1.7Zm6.781-6.781h1.7v1.7h-1.7Zm3.391,0h1.7v1.7h-1.7Zm-3.391,3.391h1.7v1.7h-1.7Zm3.391,0h1.7v1.7h-1.7Zm3.391-3.391h1.7v1.7h-1.7Zm0,3.391h1.7v1.7h-1.7Zm-6.781-6.781h1.7v1.7h-1.7Zm3.391,0h1.7v1.7h-1.7Zm3.391,0h1.7v1.7h-1.7Zm-6.781-3.391h1.7v1.7h-1.7Zm3.391,0h1.7v1.7h-1.7Zm3.391,0h1.7v1.7h-1.7Zm0-3.391h1.7v1.7h-1.7Z" transform="translate(-1.109 -1.664)" fill="#c8c8c8"/>
  </g>
</svg>
