<svg id="collaborate" xmlns="http://www.w3.org/2000/svg" width="33.75" height="33.75" viewBox="0 0 33.75 33.75">
  <path id="Path_51" data-name="Path 51" d="M6.911,23.705V22.5H4.5v1.205a8.438,8.438,0,0,0,8.437,8.438h3.616V29.732H12.938a6.027,6.027,0,0,1-6.027-6.027Z" transform="translate(-2.089 -0.804)" fill="#89b2c4"/>
  <path id="Path_52" data-name="Path 52" d="M27.643,12.938v1.205h2.411V12.938A8.437,8.437,0,0,0,21.616,4.5H18V6.911h3.616a6.027,6.027,0,0,1,6.027,6.027Z" transform="translate(-1.125 -2.089)" fill="#89b2c4"/>
  <path id="Path_53" data-name="Path 53" d="M13.1,12.375H5.866A3.616,3.616,0,0,0,2.25,15.991V18.4H4.661V15.991a1.205,1.205,0,0,1,1.205-1.205H13.1A1.205,1.205,0,0,1,14.3,15.991V18.4h2.411V15.991A3.616,3.616,0,0,0,13.1,12.375Z" transform="translate(-2.25 -1.527)" fill="#89b2c4"/>
  <path id="Path_54" data-name="Path 54" d="M9.321,11.893A4.821,4.821,0,1,0,4.5,7.071,4.821,4.821,0,0,0,9.321,11.893Zm0-7.232A2.411,2.411,0,1,1,6.911,7.071,2.411,2.411,0,0,1,9.321,4.661Z" transform="translate(-2.089 -2.25)" fill="#89b2c4"/>
  <path id="Path_55" data-name="Path 55" d="M31.1,28.125H23.866a3.616,3.616,0,0,0-3.616,3.616v2.411h2.411V31.741a1.205,1.205,0,0,1,1.205-1.205H31.1A1.205,1.205,0,0,1,32.3,31.741v2.411h2.411V31.741A3.616,3.616,0,0,0,31.1,28.125Z" transform="translate(-0.964 -0.402)" fill="#89b2c4"/>
  <path id="Path_56" data-name="Path 56" d="M22.5,22.821A4.821,4.821,0,1,0,27.321,18,4.821,4.821,0,0,0,22.5,22.821Zm7.232,0a2.411,2.411,0,1,1-2.411-2.411A2.411,2.411,0,0,1,29.732,22.821Z" transform="translate(-0.804 -1.125)" fill="#89b2c4"/>
</svg>
