<svg xmlns="http://www.w3.org/2000/svg" width="28" height="28" viewBox="0 0 28 28"><defs><style>.a{fill:none;}.b{fill:#84c7dd;}</style></defs><path class="a" d="M0,0H28V28H0Z"/><path class="b" d="M26,11.5v-5A2.451,2.451,0,0,0,23.6,4H4.4A2.441,2.441,0,0,0,2.012,6.5v5A2.5,2.5,0,0,1,2,16.5v5A2.459,2.459,0,0,0,4.4,24H23.6A2.459,2.459,0,0,0,26,21.5v-5a2.5,2.5,0,0,1,0-5ZM23.6,9.675a5.1,5.1,0,0,0,0,8.65V21.5H4.4V18.325A5.057,5.057,0,0,0,6.8,14,5.031,5.031,0,0,0,4.412,9.675L4.4,6.5H23.6ZM12.8,17.75h2.4v2.5H12.8Zm0-5h2.4v2.5H12.8Zm0-5h2.4v2.5H12.8Z"/></svg>