<svg xmlns="http://www.w3.org/2000/svg" width="94" height="94" viewBox="0 0 94 94"><defs><style>.a{fill:#001047;}</style></defs><path class="a" d="M49,2.008a47,47,0,1,0,47,47A47.031,47.031,0,0,0,49,2.008Zm0,4.087A42.907,42.907,0,0,1,79.628,79.057c-3.739-2.745-8.3-4.122-12.157-5.5a32.82,32.82,0,0,1-5.556-2.395,5.62,5.62,0,0,1-2.526-2.626c-.188-2.344-.15-4.23-.136-6.458.248-.247.565-.42.818-.718a19.529,19.529,0,0,0,1.784-2.522,18.08,18.08,0,0,0,2.123-5.715c.619-.316,1.28-.384,1.784-1.026A10.166,10.166,0,0,0,67.6,46.924a5.826,5.826,0,0,0-1.265-4.546A35.3,35.3,0,0,0,68,29.7a14.954,14.954,0,0,0-2.534-7.707A11.219,11.219,0,0,0,58.1,17.7c-2.067-2.347-5.351-3.452-9.275-3.452h-.036c-8.793.161-14.466,3.8-16.895,9.351-2.31,5.278-1.813,11.849-.156,18.691a5.8,5.8,0,0,0-1.337,4.63A10.185,10.185,0,0,0,32.237,52.1c.5.642,1.165.71,1.784,1.026a18.075,18.075,0,0,0,2.123,5.711,19.487,19.487,0,0,0,1.784,2.522c.253.3.57.476.818.722.013,2.226.051,4.112-.136,6.458a5.646,5.646,0,0,1-2.522,2.626,32.791,32.791,0,0,1-5.548,2.407c-3.856,1.382-8.411,2.769-12.161,5.492A42.907,42.907,0,0,1,49,6.095Zm-.16,12.249c3.768,0,6.139,1.12,6.789,2.259l.5.874.994.136a6.806,6.806,0,0,1,5.029,2.774,11.153,11.153,0,0,1,1.772,5.632,34.9,34.9,0,0,1-1.736,12.149l-.515,1.545,1.393.846a2.087,2.087,0,0,1,.475,1.88,6.467,6.467,0,0,1-.994,3.141c-.311.4-.444.346-.411.343l-1.684.14-.18,1.68a13.781,13.781,0,0,1-1.916,4.989,15.837,15.837,0,0,1-1.4,1.992c-.425.5-.877.812-.706.722l-1.094.571v1.237a78.572,78.572,0,0,0,.176,8.07l.024.271.1.255a9.709,9.709,0,0,0,4.37,4.821A35.228,35.228,0,0,0,66.1,77.413c3.68,1.309,7.517,2.6,10.441,4.5a42.914,42.914,0,0,1-55.078.008c2.941-1.893,6.783-3.185,10.457-4.5A35.173,35.173,0,0,0,38.2,74.667a9.737,9.737,0,0,0,4.358-4.817l.1-.255.024-.271a79.218,79.218,0,0,0,.176-8.07V60.015l-1.094-.575c.171.09-.281-.221-.706-.722a15.736,15.736,0,0,1-1.4-1.988,13.8,13.8,0,0,1-1.916-4.989l-.18-1.68-1.684-.14c.032,0-.1.053-.411-.343a6.477,6.477,0,0,1-.994-3.141,2.118,2.118,0,0,1,.475-1.88l1.3-.786L35.853,42.3c-1.758-6.767-2.024-12.925-.216-17.058S41.064,18.491,48.84,18.344Z" transform="translate(-2 -2.008)"/></svg>