<svg xmlns="http://www.w3.org/2000/svg" width="22.652" height="22.652" viewBox="0 0 22.652 22.652">
  <g id="Icon_feather-eye-off" data-name="Icon feather-eye-off" transform="translate(1.414 1.414)">
    <path id="Path_876" data-name="Path 876" d="M16.764,18.561a9.074,9.074,0,0,1-5.352,1.856C5.1,20.417,1.5,13.208,1.5,13.208A16.624,16.624,0,0,1,6.059,7.856m3.46-1.64A8.218,8.218,0,0,1,11.412,6c6.307,0,9.912,7.208,9.912,7.208a16.669,16.669,0,0,1-1.946,2.874m-6.055-.964A2.7,2.7,0,1,1,9.5,11.3" transform="translate(-1.5 -3.297)" fill="none" stroke="#c8c8c8" stroke-linecap="round" stroke-linejoin="round" stroke-width="2"/>
    <path id="Path_877" data-name="Path 877" d="M1.5,1.5,21.323,21.323" transform="translate(-1.5 -1.5)" fill="none" stroke="#c8c8c8" stroke-linecap="round" stroke-linejoin="round" stroke-width="2"/>
  </g>
</svg>
