<svg xmlns="http://www.w3.org/2000/svg" xmlns:xlink="http://www.w3.org/1999/xlink" width="47" height="25" viewBox="0 0 47 25">
  <defs>
    <clipPath id="clip-path">
      <rect id="Rectangle_959" data-name="Rectangle 959" width="47" height="25" transform="translate(32 635)" fill="#fff" stroke="#707070" stroke-width="1"/>
    </clipPath>
  </defs>
  <g id="Mask_Group_1" data-name="Mask Group 1" transform="translate(-32 -635)" clip-path="url(#clip-path)">
    <g id="Flag_of_Sri_Lanka" transform="translate(32 628.875)">
      <path id="Path_883" data-name="Path 883" d="M0,5.875H47v23.5H0Z" fill="#ffbe29"/>
      <g id="Group_957" data-name="Group 957" transform="translate(0.342 6.157)">
        <path id="Path_884" data-name="Path 884" d="M1.852,1.911h12.22V21.025H1.852Z" fill="#eb7400"/>
        <path id="Path_885" data-name="Path 885" d="M1.852,1.911h6.11V21.025H1.852Z" fill="#00534e"/>
      </g>
      <path id="Path_886" data-name="Path 886" d="M16.607,8.068h28.2V27.182h-28.2Z" fill="#8d153a"/>
      <path id="Path_887" data-name="Path 887" d="M19.672,23.469a2.61,2.61,0,0,1-.546.762c-.424.327-1.295.3-1.664.684-.443.449.034,1.043.03,1.095l-.024.314s.3,0,.424.024c.189.03.263.188.614.164.884-.059.849-.876.9-1.574.044-.266.147-.612.206-.878a4.06,4.06,0,0,0,.061-.591Z" fill="#ffbe29" stroke="#000" stroke-width="0.082"/>
      <g id="Group_959" data-name="Group 959" transform="translate(-1.574 5.647)">
        <g id="Group_958" data-name="Group 958">
          <path id="Path_888" data-name="Path 888" d="M27.856,19.124l.178-.1.076.1a.448.448,0,0,0,.569,0l.143-.1.119.1a.548.548,0,0,0,.637,0c.131-.1.149-.1.236-.025a.822.822,0,0,0,.337.109c.24.03.244.029.385-.177a.452.452,0,0,0,.108-.41c-.019-.111-.039-.289-.045-.4-.011-.194-.01-.2.28-.294a3.964,3.964,0,0,0,.412-.162,1.549,1.549,0,0,0,.435-.5.625.625,0,0,0-.277-.065c-.606-.066-.709-.384-.315-.974a5.333,5.333,0,0,0,1.033-2.5c0-.267.017-.356.052-.3a3.306,3.306,0,0,1-.5,1.945l-.157.287.15-.034c.082-.018.567-.218,1.076-.443a5.276,5.276,0,0,1,2.776-.7,1.958,1.958,0,0,1,1.612.721,4.895,4.895,0,0,0,1.053.8c1.062.648,1.106.7,1.156,1.467s.026.814-.573.944c-.512.11-.833.343-.919.667-.046.173.051.178.309.016l.189-.119.084.119a.369.369,0,0,0,.541,0l.147-.117.151.117a.4.4,0,0,0,.633-.09c.017-.044.062-.03.153.048.171.145.61.207.657.093a.343.343,0,0,0-.076-.239,1.378,1.378,0,0,1-.338-.754c0-.283.082-.419.411-.649.4-.279.524-.639.22-.639a.623.623,0,0,1-.5-.426,2.7,2.7,0,0,1,.171-2.14,4.214,4.214,0,0,0,.417-1.885,1.828,1.828,0,0,0-.141-.946,3.374,3.374,0,0,0-.353-.61l-.211-.275.271-.219a1.23,1.23,0,0,0-.338-2.184,1.712,1.712,0,0,0-.914-.137,7.978,7.978,0,0,0-1.085.091,7.713,7.713,0,0,1-1.087.09c-.52,0-.608-.01-.809-.115s-.245-.16-.286-.411a.15.15,0,0,0-.082-.114c-.071-.022-.4.256-.448.379-.024.061-.043.057-.114-.024a.993.993,0,0,1-.145-.275c-.083-.245.019-.428.314-.566l.229-.107-.135-.082a.741.741,0,0,0-.923.225c-.048.079-.1.143-.117.143a1,1,0,0,1-.2-.167.575.575,0,0,1,.245-1c.256-.083.483-.02.53.147.072.255.3-.08.256-.382-.027-.2-.023-.208.12-.208a1.288,1.288,0,0,1,.75.451.838.838,0,0,1-.026.861l-.131.212.171-.033a1,1,0,0,0,.618-.386A.87.87,0,0,0,37.045,6c-.112-.2-.1-.23.066-.163a.936.936,0,0,1,.546.456.456.456,0,0,1,.052.445,1.263,1.263,0,0,1-.168.365c-.091.118-.094.138-.022.138a1,1,0,0,0,.517-.229,1.017,1.017,0,0,0,.164-.288l.072-.192.083.146a1.279,1.279,0,0,0,.621.509c.3.125.422.132.266.015A1.226,1.226,0,0,1,39,6.518a3.861,3.861,0,0,1,.9.677,1.541,1.541,0,0,0,1.113.508c.513,0,.811-.436.581-.847a.363.363,0,0,0-.609-.068.277.277,0,0,0-.079.269c.029.122.018.138-.1.138-.149,0-.443-.186-.965-.611a7.848,7.848,0,0,0-2.461-1.4,5.546,5.546,0,0,0-1.861-.1,3.071,3.071,0,0,0-1.394.658,1.233,1.233,0,0,0-.024,1.85l.157.181-.106.161a.683.683,0,0,0,.033.782.724.724,0,0,0,.172.186c.018,0,.037-.066.044-.146a.409.409,0,0,1,.258-.393c.138-.049.228-.026.86.221a5.747,5.747,0,0,0,2.925.048,3.333,3.333,0,0,1,1.54.015.734.734,0,0,1,.27,1.237c-.173.19-.339.267-.9.417a4.284,4.284,0,0,1-1.494.112,6.573,6.573,0,0,0-1.461.076,6.719,6.719,0,0,1-1.667.056L33.5,10.517l.138.111a2.169,2.169,0,0,0,.238.168c.094.053.091.06-.049.11a1.486,1.486,0,0,1-.4.054h-.255l-.034.212a.743.743,0,0,0,0,.3c.03.073.019.084-.06.056-.054-.019-.2-.056-.332-.083a2.079,2.079,0,0,1-.386-.121c-.14-.067-.156-.065-.207.024a2.015,2.015,0,0,1-.542.393c-.01,0-.023-.061-.029-.134a1.914,1.914,0,0,0-.139-.428c-.07-.161-.144-.337-.163-.391-.029-.081-.043-.085-.078-.024a1.033,1.033,0,0,0-.076.245,1.144,1.144,0,0,1-.145.34l-.111.169-.071-.144c-.076-.155-.2-.315-.249-.315-.015,0-.042.05-.059.11a1.192,1.192,0,0,1-.408.477c-.027,0-.049-.1-.049-.22s-.024-.22-.053-.22a.063.063,0,0,0-.053.07c0,.093-.256.371-.342.371a.221.221,0,0,0-.134.073c-.094.105-.172.09-.132-.025a.56.56,0,0,0-.027-.281l-.079-.238c-.013-.038-.1-.028-.3.033-.314.1-.419.081-.258-.043a.92.92,0,0,0,.2-.347.6.6,0,0,1,.166-.288c.057-.017.054,0-.013.093a.425.425,0,0,0-.088.19.614.614,0,0,1-.08.216c-.044.078-.072.149-.061.159a.931.931,0,0,0,.266-.1l.247-.116v.1a1.786,1.786,0,0,0,.066.333l.065.23.168-.075A.7.7,0,0,0,29.927,11c0-.105.062-.089.087.023.007.033.046.156.086.274l.073.214.115-.135a1.138,1.138,0,0,0,.176-.324c.059-.18.15-.258.15-.127,0,.094.264.433.315.4a.782.782,0,0,0,.109-.282c.073-.294.192-.494.267-.451a.05.05,0,0,1,.024.07,1.394,1.394,0,0,0,.135.425l.2.473c.033.078.062.067.253-.1a1.171,1.171,0,0,0,.24-.255c.02-.057.046-.055.157.012a1.958,1.958,0,0,0,.719.209,1,1,0,0,0,.034-.3l.007-.272.15.03a1.44,1.44,0,0,0,.387,0l.236-.033-.21-.141a1.149,1.149,0,0,1-.26-.223.353.353,0,0,0-.249-.1c-.315-.026-.874-.332-.874-.478,0-.027.077.019.172.1a1.2,1.2,0,0,0,.756.306h.191l-.118-.153a.874.874,0,0,1-.143-.392c-.023-.219-.046-.253-.28-.412a2.678,2.678,0,0,1-.387-.317l-.131-.144-.067.171c-.037.094-.082.171-.1.171a.543.543,0,0,1-.157-.122A.554.554,0,0,0,31.836,9a.628.628,0,0,0-.135.2l-.1.2-.08-.116a1.782,1.782,0,0,0-.232-.25c-.083-.074-.127-.134-.1-.134a.708.708,0,0,1,.229.171l.175.171.071-.125a.437.437,0,0,0,.039-.281c-.028-.135-.024-.143.029-.058a1.23,1.23,0,0,0,.227.229l.166.131.115-.2c.114-.2.115-.2.167-.082a3.171,3.171,0,0,0,1,.8q.1.054-.084-.374a.927.927,0,0,1-.059-.3c0-.135-.04-.2-.217-.327a.813.813,0,0,1-.387-.631.863.863,0,0,0-.1-.307c-.052-.066-.061-.029-.047.2a1.19,1.19,0,0,1-.046.429L32.4,8.49l-.049-.122a.781.781,0,0,0-.264-.26c-.118-.076-.2-.15-.184-.166s.138.053.27.153c.2.152.245.169.273.1a1.781,1.781,0,0,0-.063-.661c-.032-.12-.029-.119.122.029a.827.827,0,0,1,.221.465.767.767,0,0,0,.364.569,1.573,1.573,0,0,0,.316.237c.01-.01.031-.372.046-.806.028-.831,0-1.029-.209-1.286l-.105-.132.166-.174a1.181,1.181,0,0,0,.358-.659l.035-.2-.187.173a.485.485,0,0,1-.4.173.405.405,0,0,1-.363-.152,1.529,1.529,0,0,0-.636-.359c-.089-.026-.119-.014-.119.045a.9.9,0,0,1-.11.277l-.11.2-.23-.222a1.109,1.109,0,0,0-.433-.274c-.318-.082-.335-.073-.335.158,0,.351-.153.416-.43.183A.876.876,0,0,0,29.56,5.6l-.308.033.055.136c.046.113.036.161-.063.29a.787.787,0,0,1-.693.3,1.226,1.226,0,0,0-.413.067,1.691,1.691,0,0,1-.434.094,2.355,2.355,0,0,0-.379.059c-.076.028-.084,0-.06-.163a.391.391,0,0,0-.434-.448c-.373,0-.545.325-.4.755.028.083.065.213.082.289a1.731,1.731,0,0,0,.391.491,4.353,4.353,0,0,1,.416.448.688.688,0,0,0,.226.188l.17.092-.022-.178c-.025-.2.019-.226.125-.088a.931.931,0,0,0,.215.177c.126.076.146.077.146.012a.745.745,0,0,1,.057-.213l.057-.138.1.187a3.715,3.715,0,0,0,.394.52c.315.355.506.753.407.844-.04.037-.149.034-.373-.01a1.945,1.945,0,0,0-.479-.04c-.182.025-.2,0-.084-.135S28.358,9,28.125,9a4.948,4.948,0,0,1-1.192-.225c-.249-.1-.307-.072-.38.158-.033.1-.093.292-.134.418l-.074.229.269-.025a2.886,2.886,0,0,0,.424-.07.442.442,0,0,1,.171-.029.557.557,0,0,1-.084.2l-.1.183.168-.033a1.608,1.608,0,0,0,.309-.1c.135-.064.146-.059.252.108.131.2.235.2.259-.021s.1-.191.242.106.28.387.307.218a.408.408,0,0,1,.164-.2c.164-.113.288-.079.359.1s-.09.372-.566.654a3.215,3.215,0,0,0-1.666,2.318,2.6,2.6,0,0,0,1.2,2.461c.428.315,1.108.647,1.064.52a2.71,2.71,0,0,1,.01-1.74c.028-.026.018.081-.022.238a3.381,3.381,0,0,0,.3,2.144c.345.988.3,1.411-.191,1.69-.157.09-.258.1-.68.1-.458-.005-.508,0-.655.118a1.161,1.161,0,0,0-.327.645c0,.092.1.08.31-.036Z" fill="#ffbe29" stroke="#000" stroke-width="0.224"/>
          <path id="Path_889" data-name="Path 889" d="M35.291,19.1l.192-.12.13.12a.357.357,0,0,0,.535-.009c.072-.071.136-.121.143-.11l.071.118c.041.068.124.1.275.113.182.012.23,0,.3-.106l.086-.121.189.119c.518.325.794-.016.562-.694-.118-.345-.053-.539.326-.978a1.389,1.389,0,0,0,.291-.439c0-.09-.03-.1-.242-.1s-.263-.017-.37-.133a.44.44,0,0,1,.031-.64l.156-.19-.276-.183a4.56,4.56,0,0,1-.609-.529,1.988,1.988,0,0,0-1.348-.676l-.357-.031v.264a2.017,2.017,0,0,0,.61,1.22,1.829,1.829,0,0,1,.563,1.549l.017.7-.147.136c-.133.123-.192.138-.62.162-.407.023-.493.043-.612.147a.647.647,0,0,0-.255.4c-.029.11-.017.134.065.134a.779.779,0,0,0,.292-.12Z" fill="#ffbe29" stroke="#000" stroke-width="0.224"/>
          <path id="Path_890" data-name="Path 890" d="M24.476,17.092c0-.088.04-.111.238-.139l.238-.033-.159-.124c-.189-.147-.206-.262-.04-.262a.667.667,0,0,0,.489-.292.191.191,0,0,0-.028-.175c-.093-.1-.268-.088-.3.027s-.093.124-.226,0a.6.6,0,0,1-.009-.787c.092-.1.091-.111-.026-.219s-.215-.346-.156-.4a.388.388,0,0,1,.221.031c.146.049.2.049.263,0,.182-.139-.015-.319-.307-.279-.117.016-.166,0-.183-.059s-.115-.1-.231-.132c-.207-.051-.208-.05-.208.089s-.089.181-.258.083c-.138-.079-.271-.018-.271.125s.137.2.384.184c.189-.012.2.125.017.322l-.129.142.1.143a.634.634,0,0,1-.027.74l-.13.137-.085-.11c-.118-.153-.28-.143-.324.021-.029.107-.005.156.132.269a.6.6,0,0,0,.3.138c.179,0,.172.137-.014.276l-.146.109.225.034c.124.019.225.054.225.078,0,.093.058.376.206.383.132.006.214-.189.217-.323Z" fill="#ffbe29" stroke="#000" stroke-width="0.224"/>
          <path id="Path_891" data-name="Path 891" d="M27.322,16.068a1.682,1.682,0,0,0,.647-.534,1.22,1.22,0,0,0-.271-.291,2.963,2.963,0,0,1-.744-1.017c-.046-.142-.269-.386-.9-.98l-.836-.791-.241.06a2.171,2.171,0,0,1-.359.061c-.112,0-.11.008.039.121l.157.119.221-.119c.214-.116.221-.116.248-.023a.282.282,0,0,1-.077.218c-.057.067-.09.144-.073.17s-.038.08-.122.121c-.157.075-.266.322-.142.322s.357-.3.329-.4c-.015-.051-.007-.1.016-.117.1-.055.09.178-.008.292-.057.067-.09.144-.073.17s-.038.08-.122.121c-.156.075-.266.322-.143.322s.362-.283.332-.388c-.016-.055-.01-.111.013-.125.064-.037.1.147.045.236a.167.167,0,0,0,0,.166.285.285,0,0,1-.1.332c-.042.024-.014.072.089.147.148.109.151.121.151.6,0,.4.017.507.093.578s.093.079.093,0,.148-.183.27-.183a2.681,2.681,0,0,1,.5.411,2.307,2.307,0,0,0,.56.433l.169.029a.959.959,0,0,0,.238-.069Z" fill="#ffbe29" stroke="#000" stroke-width="0.224"/>
          <path id="Path_892" data-name="Path 892" d="M24.767,14.117c0-.13-.275-.269-.6-.3-.265-.029-.27-.027-.27.1,0,.107.042.149.225.227.294.125.648.112.648-.024Z" fill="#ffbe29" stroke="#000" stroke-width="0.224"/>
          <path id="Path_893" data-name="Path 893" d="M25.068,14.105c.134-.119.2-.26.117-.26s-.339.216-.339.3c0,.127.046.119.222-.037Z" fill="#ffbe29" stroke="#000" stroke-width="0.224"/>
          <path id="Path_894" data-name="Path 894" d="M24.782,13.721c.011-.073-.035-.122-.175-.184a1.159,1.159,0,0,0-.747-.127c-.159.122-.053.286.2.316a1.6,1.6,0,0,1,.313.069C24.576,13.869,24.765,13.835,24.782,13.721Z" fill="#ffbe29" stroke="#000" stroke-width="0.224"/>
          <path id="Path_895" data-name="Path 895" d="M24.782,13.328c.016-.1-.052-.142-.612-.334-.418-.144-.6-.076-.469.172.047.086.125.126.3.151a3.377,3.377,0,0,1,.4.083c.233.071.368.046.386-.071Z" fill="#ffbe29" stroke="#000" stroke-width="0.224"/>
          <path id="Path_896" data-name="Path 896" d="M25.063,12.96a.538.538,0,0,0,.154-.219c0-.12-.334.092-.376.239-.051.176.032.169.223-.02Z" fill="#ffbe29" stroke="#000" stroke-width="0.224"/>
          <path id="Path_897" data-name="Path 897" d="M24.782,12.935c.018-.119-.185-.227-.584-.31-.293-.061-.422-.026-.4.107.012.073.11.126.387.21.443.135.576.133.6-.007Z" fill="#ffbe29" stroke="#000" stroke-width="0.224"/>
          <path id="Path_898" data-name="Path 898" d="M25.173,12.38c.512-.222.556-.783.073-.93-.2-.061-.328-.028-.405.1-.059.1-.019.286.061.286.027,0,.049.034.049.076,0,.195-.782.283-1.1.124-.113-.056-.162-.2-.068-.2.07,0,.118-.147.083-.251-.049-.142-.2-.191-.408-.137-.48.122-.466.673.022.906a2.642,2.642,0,0,0,1.695.022Z" fill="#ffbe29" stroke="#000" stroke-width="0.224"/>
          <path id="Path_899" data-name="Path 899" d="M24.855,11.949c.03-.027.017-.069-.033-.108-.109-.083-.1-.208.016-.35.09-.107.1-.266.132-1.877a19.383,19.383,0,0,1,.544-5.365c.111-.2.1-.2-.191-.01a2.723,2.723,0,0,0-.9,1.022c-.471.863-.634,2.025-.634,4.5,0,1.408.01,1.592.092,1.724a.262.262,0,0,1,.027.306c-.036.087-.052.17-.036.185a1.643,1.643,0,0,0,.984-.033Z" fill="#ffbe29" stroke="#000" stroke-width="0.224"/>
          <path id="Path_900" data-name="Path 900" d="M29.156,9.3a.544.544,0,0,0-.079-.269c-.093-.193-.13-.225-.262-.225a5.076,5.076,0,0,1-1.761-.478c-.4-.172-.532-.211-.579-.168-.121.112.08.377.391.516a5.011,5.011,0,0,0,1.4.276c.2,0,.209.009.093.173l-.085.121.231.006a2.364,2.364,0,0,1,.39.043c.227.053.229.053.261.005Z" fill="#ffbe29" stroke="#000" stroke-width="0.224"/>
          <path id="Path_901" data-name="Path 901" d="M31.567,10.553c0-.072-.216-.266-.435-.391-.172-.1-.2-.1-.2-.021,0,.122-.112.428-.155.428-.025,0-.061-.06-.081-.133a1.167,1.167,0,0,0-.185-.32l-.149-.187-.116.173c-.108.162-.3.32-.379.32-.02,0-.024-.085-.009-.189s0-.2-.032-.223-.059-.012-.059.014a.917.917,0,0,1-.315.349c-.023,0-.054-.083-.071-.183s-.044-.26-.061-.355.02-.03.082.142l.114.313.125-.191a.826.826,0,0,0,.125-.255c0-.035.023-.051.052-.035a.6.6,0,0,1,.087.28l.036.251.138-.147a2.178,2.178,0,0,0,.2-.241c.058-.092.062-.092.178,0a1.192,1.192,0,0,1,.222.286c.057.1.112.181.121.171a1.166,1.166,0,0,0,.047-.237c.016-.121.031-.225.032-.23a2.389,2.389,0,0,1,.565.358c.1.084.188.141.2.126a.82.82,0,0,0,.028-.275.389.389,0,0,0-.156-.385c-.153-.133-.157-.134-.214-.037-.073.127-.16.128-.16,0A.963.963,0,0,0,30.78,9.3c-.019,0-.08.077-.135.171a.5.5,0,0,1-.131.171,1.572,1.572,0,0,1-.481-.523c0-.064.027-.047.1.059a1.59,1.59,0,0,0,.241.268c.158.135.216.1.277-.158.017-.074.048-.134.067-.134a1.589,1.589,0,0,1,.472.489l.05.122.038-.134c.046-.164.1-.171.171-.021a1.166,1.166,0,0,0,.339.29l.283.176.057-.177c.031-.1.073-.153.092-.124a.743.743,0,0,1-.1.4.633.633,0,0,1-.2-.116l-.189-.133v.238a1.7,1.7,0,0,1-.033.348c-.034.118-.125.152-.125.046Z" stroke="#000" stroke-width="0.224"/>
          <path id="Path_902" data-name="Path 902" d="M30.156,8.655c-.336-.274-.388-.337-.38-.467l.008-.138.022.134a.563.563,0,0,0,.215.281l.193.147.119-.134a.5.5,0,0,0,.121-.2c0-.088.019-.08.247.113.2.171.206.172.236.061a.568.568,0,0,0-.013-.259c-.066-.221-.053-.255.047-.121a2.408,2.408,0,0,0,.178.209c.084.084.089.083.12-.024a1.114,1.114,0,0,0,.033-.252V7.87l.182.2c.17.189.186.2.238.106a.7.7,0,0,0,.056-.283c0-.133.015-.166.049-.116a.629.629,0,0,1-.089.509l-.076.14-.1-.153c-.128-.2-.171-.192-.254.019s-.129.214-.2.061c-.049-.1-.058-.087-.093.121l-.039.231-.232-.176-.232-.176-.1.116a.42.42,0,0,0-.106.177c0,.073-.058.075-.143.006Z" stroke="#000" stroke-width="0.224"/>
          <path id="Path_903" data-name="Path 903" d="M33.149,7.634c-.122-.108-.207-.21-.187-.228s.041-.023.048-.011.107.114.222.228c.265.262.21.27-.083.011Z" stroke="#000" stroke-width="0.224"/>
          <path id="Path_904" data-name="Path 904" d="M29.163,7.232c-.111-.147-.1-.244.032-.4.1-.115.143-.131.314-.11a1.87,1.87,0,0,1,.525.21,1.671,1.671,0,0,0,.586.216,1.032,1.032,0,0,0,.261.014,1.83,1.83,0,0,0-.132-.21c-.173-.253-.167-.28.028-.129a1.4,1.4,0,0,0,.974.185L32.011,7l-.152-.146c-.212-.2-.147-.223.087-.025s.206.2-.256.244a1.792,1.792,0,0,1-.583-.038c-.263-.065-.273-.064-.223.022.029.05.075.09.1.09a.054.054,0,0,1,.051.056c0,.094-.567.011-.838-.123-.619-.306-.7-.332-.845-.287a.323.323,0,0,0-.192.173.237.237,0,0,0,.412.22c.043-.063.033-.106-.042-.183-.1-.105-.094-.12.046-.071.1.035.112.267.02.352a.337.337,0,0,1-.436-.05Z" stroke="#000" stroke-width="0.224"/>
          <path id="Path_905" data-name="Path 905" d="M31.6,6.623c-.077-.072-.017-.089.33-.1a1.753,1.753,0,0,0,1-.267c.247-.152.313-.122.079.035a2.036,2.036,0,0,1-.868.288c-.156.016-.333.039-.394.05a.22.22,0,0,1-.146-.011Z" stroke="#000" stroke-width="0.224"/>
        </g>
        <g id="a">
          <path id="Path_906" data-name="Path 906" d="M27.856,19.124l.178-.1.076.1a.448.448,0,0,0,.569,0l.143-.1.119.1a.548.548,0,0,0,.637,0c.131-.1.149-.1.236-.025a.822.822,0,0,0,.337.109c.24.03.244.029.385-.177a.452.452,0,0,0,.108-.41c-.019-.111-.039-.289-.045-.4-.011-.194-.01-.2.28-.294a3.964,3.964,0,0,0,.412-.162,1.549,1.549,0,0,0,.435-.5.625.625,0,0,0-.277-.065c-.606-.066-.709-.384-.315-.974a5.333,5.333,0,0,0,1.033-2.5c0-.267.017-.356.052-.3a3.306,3.306,0,0,1-.5,1.945l-.157.287.15-.034c.082-.018.567-.218,1.076-.443a5.276,5.276,0,0,1,2.776-.7,1.958,1.958,0,0,1,1.612.721,4.895,4.895,0,0,0,1.053.8c1.062.648,1.106.7,1.156,1.467s.026.814-.573.944c-.512.11-.833.343-.919.667-.046.173.051.178.309.016l.189-.119.084.119a.369.369,0,0,0,.541,0l.147-.117.151.117a.4.4,0,0,0,.633-.09c.017-.044.062-.03.153.048.171.145.61.207.657.093a.343.343,0,0,0-.076-.239,1.378,1.378,0,0,1-.338-.754c0-.283.082-.419.411-.649.4-.279.524-.639.22-.639a.623.623,0,0,1-.5-.426,2.7,2.7,0,0,1,.171-2.14,4.214,4.214,0,0,0,.417-1.885,1.828,1.828,0,0,0-.141-.946,3.374,3.374,0,0,0-.353-.61l-.211-.275.271-.219a1.23,1.23,0,0,0-.338-2.184,1.712,1.712,0,0,0-.914-.137,7.978,7.978,0,0,0-1.085.091,7.713,7.713,0,0,1-1.087.09c-.52,0-.608-.01-.809-.115s-.245-.16-.286-.411a.15.15,0,0,0-.082-.114c-.071-.022-.4.256-.448.379-.024.061-.043.057-.114-.024a.993.993,0,0,1-.145-.275c-.083-.245.019-.428.314-.566l.229-.107-.135-.082a.741.741,0,0,0-.923.225c-.048.079-.1.143-.117.143a1,1,0,0,1-.2-.167.575.575,0,0,1,.245-1c.256-.083.483-.02.53.147.072.255.3-.08.256-.382-.027-.2-.023-.208.12-.208a1.288,1.288,0,0,1,.75.451.838.838,0,0,1-.026.861l-.131.212.171-.033a1,1,0,0,0,.618-.386A.87.87,0,0,0,37.045,6c-.112-.2-.1-.23.066-.163a.936.936,0,0,1,.546.456.456.456,0,0,1,.052.445,1.263,1.263,0,0,1-.168.365c-.091.118-.094.138-.022.138a1,1,0,0,0,.517-.229,1.017,1.017,0,0,0,.164-.288l.072-.192.083.146a1.279,1.279,0,0,0,.621.509c.3.125.422.132.266.015A1.226,1.226,0,0,1,39,6.518a3.861,3.861,0,0,1,.9.677,1.541,1.541,0,0,0,1.113.508c.513,0,.811-.436.581-.847a.363.363,0,0,0-.609-.068.277.277,0,0,0-.079.269c.029.122.018.138-.1.138-.149,0-.443-.186-.965-.611a7.848,7.848,0,0,0-2.461-1.4,5.546,5.546,0,0,0-1.861-.1,3.071,3.071,0,0,0-1.394.658,1.233,1.233,0,0,0-.024,1.85l.157.181-.106.161a.683.683,0,0,0,.033.782.724.724,0,0,0,.172.186c.018,0,.037-.066.044-.146a.409.409,0,0,1,.258-.393c.138-.049.228-.026.86.221a5.747,5.747,0,0,0,2.925.048,3.333,3.333,0,0,1,1.54.015.734.734,0,0,1,.27,1.237c-.173.19-.339.267-.9.417a4.284,4.284,0,0,1-1.494.112,6.573,6.573,0,0,0-1.461.076,6.719,6.719,0,0,1-1.667.056L33.5,10.517l.138.111a2.169,2.169,0,0,0,.238.168c.094.053.091.06-.049.11a1.486,1.486,0,0,1-.4.054h-.255l-.034.212a.743.743,0,0,0,0,.3c.03.073.019.084-.06.056-.054-.019-.2-.056-.332-.083a2.079,2.079,0,0,1-.386-.121c-.14-.067-.156-.065-.207.024a2.015,2.015,0,0,1-.542.393c-.01,0-.023-.061-.029-.134a1.914,1.914,0,0,0-.139-.428c-.07-.161-.144-.337-.163-.391-.029-.081-.043-.085-.078-.024a1.033,1.033,0,0,0-.076.245,1.144,1.144,0,0,1-.145.34l-.111.169-.071-.144c-.076-.155-.2-.315-.249-.315-.015,0-.042.05-.059.11a1.192,1.192,0,0,1-.408.477c-.027,0-.049-.1-.049-.22s-.024-.22-.053-.22a.063.063,0,0,0-.053.07c0,.093-.256.371-.342.371a.221.221,0,0,0-.134.073c-.094.105-.172.09-.132-.025a.56.56,0,0,0-.027-.281l-.079-.238c-.013-.038-.1-.028-.3.033-.314.1-.419.081-.258-.043a.92.92,0,0,0,.2-.347.6.6,0,0,1,.166-.288c.057-.017.054,0-.013.093a.425.425,0,0,0-.088.19.614.614,0,0,1-.08.216c-.044.078-.072.149-.061.159a.931.931,0,0,0,.266-.1l.247-.116v.1a1.786,1.786,0,0,0,.066.333l.065.23.168-.075A.7.7,0,0,0,29.927,11c0-.105.062-.089.087.023.007.033.046.156.086.274l.073.214.115-.135a1.138,1.138,0,0,0,.176-.324c.059-.18.15-.258.15-.127,0,.094.264.433.315.4a.782.782,0,0,0,.109-.282c.073-.294.192-.494.267-.451a.05.05,0,0,1,.024.07,1.394,1.394,0,0,0,.135.425l.2.473c.033.078.062.067.253-.1a1.171,1.171,0,0,0,.24-.255c.02-.057.046-.055.157.012a1.958,1.958,0,0,0,.719.209,1,1,0,0,0,.034-.3l.007-.272.15.03a1.44,1.44,0,0,0,.387,0l.236-.033-.21-.141a1.149,1.149,0,0,1-.26-.223.353.353,0,0,0-.249-.1c-.315-.026-.874-.332-.874-.478,0-.027.077.019.172.1a1.2,1.2,0,0,0,.756.306h.191l-.118-.153a.874.874,0,0,1-.143-.392c-.023-.219-.046-.253-.28-.412a2.678,2.678,0,0,1-.387-.317l-.131-.144-.067.171c-.037.094-.082.171-.1.171a.543.543,0,0,1-.157-.122A.554.554,0,0,0,31.836,9a.628.628,0,0,0-.135.2l-.1.2-.08-.116a1.782,1.782,0,0,0-.232-.25c-.083-.074-.127-.134-.1-.134a.708.708,0,0,1,.229.171l.175.171.071-.125a.437.437,0,0,0,.039-.281c-.028-.135-.024-.143.029-.058a1.23,1.23,0,0,0,.227.229l.166.131.115-.2c.114-.2.115-.2.167-.082a3.171,3.171,0,0,0,1,.8q.1.054-.084-.374a.927.927,0,0,1-.059-.3c0-.135-.04-.2-.217-.327a.813.813,0,0,1-.387-.631.863.863,0,0,0-.1-.307c-.052-.066-.061-.029-.047.2a1.19,1.19,0,0,1-.046.429L32.4,8.49l-.049-.122a.781.781,0,0,0-.264-.26c-.118-.076-.2-.15-.184-.166s.138.053.27.153c.2.152.245.169.273.1a1.781,1.781,0,0,0-.063-.661c-.032-.12-.029-.119.122.029a.827.827,0,0,1,.221.465.767.767,0,0,0,.364.569,1.573,1.573,0,0,0,.316.237c.01-.01.031-.372.046-.806.028-.831,0-1.029-.209-1.286l-.105-.132.166-.174a1.181,1.181,0,0,0,.358-.659l.035-.2-.187.173a.485.485,0,0,1-.4.173.405.405,0,0,1-.363-.152,1.529,1.529,0,0,0-.636-.359c-.089-.026-.119-.014-.119.045a.9.9,0,0,1-.11.277l-.11.2-.23-.222a1.109,1.109,0,0,0-.433-.274c-.318-.082-.335-.073-.335.158,0,.351-.153.416-.43.183A.876.876,0,0,0,29.56,5.6l-.308.033.055.136c.046.113.036.161-.063.29a.787.787,0,0,1-.693.3,1.226,1.226,0,0,0-.413.067,1.691,1.691,0,0,1-.434.094,2.355,2.355,0,0,0-.379.059c-.076.028-.084,0-.06-.163a.391.391,0,0,0-.434-.448c-.373,0-.545.325-.4.755.028.083.065.213.082.289a1.731,1.731,0,0,0,.391.491,4.353,4.353,0,0,1,.416.448.688.688,0,0,0,.226.188l.17.092-.022-.178c-.025-.2.019-.226.125-.088a.931.931,0,0,0,.215.177c.126.076.146.077.146.012a.745.745,0,0,1,.057-.213l.057-.138.1.187a3.715,3.715,0,0,0,.394.52c.315.355.506.753.407.844-.04.037-.149.034-.373-.01a1.945,1.945,0,0,0-.479-.04c-.182.025-.2,0-.084-.135S28.358,9,28.125,9a4.948,4.948,0,0,1-1.192-.225c-.249-.1-.307-.072-.38.158-.033.1-.093.292-.134.418l-.074.229.269-.025a2.886,2.886,0,0,0,.424-.07.442.442,0,0,1,.171-.029.557.557,0,0,1-.084.2l-.1.183.168-.033a1.608,1.608,0,0,0,.309-.1c.135-.064.146-.059.252.108.131.2.235.2.259-.021s.1-.191.242.106.28.387.307.218a.408.408,0,0,1,.164-.2c.164-.113.288-.079.359.1s-.09.372-.566.654a3.215,3.215,0,0,0-1.666,2.318,2.6,2.6,0,0,0,1.2,2.461c.428.315,1.108.647,1.064.52a2.71,2.71,0,0,1,.01-1.74c.028-.026.018.081-.022.238a3.381,3.381,0,0,0,.3,2.144c.345.988.3,1.411-.191,1.69-.157.09-.258.1-.68.1-.458-.005-.508,0-.655.118a1.161,1.161,0,0,0-.327.645c0,.092.1.08.31-.036Z" fill="#ffbe29"/>
          <path id="Path_907" data-name="Path 907" d="M35.291,19.1l.192-.12.13.12a.357.357,0,0,0,.535-.009c.072-.071.136-.121.143-.11l.071.118c.041.068.124.1.275.113.182.012.23,0,.3-.106l.086-.121.189.119c.518.325.794-.016.562-.694-.118-.345-.053-.539.326-.978a1.389,1.389,0,0,0,.291-.439c0-.09-.03-.1-.242-.1s-.263-.017-.37-.133a.44.44,0,0,1,.031-.64l.156-.19-.276-.183a4.56,4.56,0,0,1-.609-.529,1.988,1.988,0,0,0-1.348-.676l-.357-.031v.264a2.017,2.017,0,0,0,.61,1.22,1.829,1.829,0,0,1,.563,1.549l.017.7-.147.136c-.133.123-.192.138-.62.162-.407.023-.493.043-.612.147a.647.647,0,0,0-.255.4c-.029.11-.017.134.065.134a.779.779,0,0,0,.292-.12Z" fill="#ffbe29"/>
          <path id="Path_908" data-name="Path 908" d="M24.476,17.092c0-.088.04-.111.238-.139l.238-.033-.159-.124c-.189-.147-.206-.262-.04-.262a.667.667,0,0,0,.489-.292.191.191,0,0,0-.028-.175c-.093-.1-.268-.088-.3.027s-.093.124-.226,0a.6.6,0,0,1-.009-.787c.092-.1.091-.111-.026-.219s-.215-.346-.156-.4a.388.388,0,0,1,.221.031c.146.049.2.049.263,0,.182-.139-.015-.319-.307-.279-.117.016-.166,0-.183-.059s-.115-.1-.231-.132c-.207-.051-.208-.05-.208.089s-.089.181-.258.083c-.138-.079-.271-.018-.271.125s.137.2.384.184c.189-.012.2.125.017.322l-.129.142.1.143a.634.634,0,0,1-.027.74l-.13.137-.085-.11c-.118-.153-.28-.143-.324.021-.029.107-.005.156.132.269a.6.6,0,0,0,.3.138c.179,0,.172.137-.014.276l-.146.109.225.034c.124.019.225.054.225.078,0,.093.058.376.206.383.132.006.214-.189.217-.323Z" fill="#ffbe29"/>
          <path id="Path_909" data-name="Path 909" d="M27.322,16.068a1.682,1.682,0,0,0,.647-.534,1.22,1.22,0,0,0-.271-.291,2.963,2.963,0,0,1-.744-1.017c-.046-.142-.269-.386-.9-.98l-.836-.791-.241.06a2.171,2.171,0,0,1-.359.061c-.112,0-.11.008.039.121l.157.119.221-.119c.214-.116.221-.116.248-.023a.282.282,0,0,1-.077.218c-.057.067-.09.144-.073.17s-.038.08-.122.121c-.157.075-.266.322-.142.322s.357-.3.329-.4c-.015-.051-.007-.1.016-.117.1-.055.09.178-.008.292-.057.067-.09.144-.073.17s-.038.08-.122.121c-.156.075-.266.322-.143.322s.362-.283.332-.388c-.016-.055-.01-.111.013-.125.064-.037.1.147.045.236a.167.167,0,0,0,0,.166.285.285,0,0,1-.1.332c-.042.024-.014.072.089.147.148.109.151.121.151.6,0,.4.017.507.093.578s.093.079.093,0,.148-.183.27-.183a2.681,2.681,0,0,1,.5.411,2.307,2.307,0,0,0,.56.433l.169.029a.959.959,0,0,0,.238-.069Z" fill="#ffbe29"/>
          <path id="Path_910" data-name="Path 910" d="M24.767,14.117c0-.13-.275-.269-.6-.3-.265-.029-.27-.027-.27.1,0,.107.042.149.225.227.294.125.648.112.648-.024Z" fill="#ffbe29"/>
          <path id="Path_911" data-name="Path 911" d="M25.068,14.105c.134-.119.2-.26.117-.26s-.339.216-.339.3c0,.127.046.119.222-.037Z" fill="#ffbe29"/>
          <path id="Path_912" data-name="Path 912" d="M24.782,13.721c.011-.073-.035-.122-.175-.184a1.159,1.159,0,0,0-.747-.127c-.159.122-.053.286.2.316a1.6,1.6,0,0,1,.313.069C24.576,13.869,24.765,13.835,24.782,13.721Z" fill="#ffbe29"/>
          <path id="Path_913" data-name="Path 913" d="M24.782,13.328c.016-.1-.052-.142-.612-.334-.418-.144-.6-.076-.469.172.047.086.125.126.3.151a3.377,3.377,0,0,1,.4.083c.233.071.368.046.386-.071Z" fill="#ffbe29"/>
          <path id="Path_914" data-name="Path 914" d="M25.063,12.96a.538.538,0,0,0,.154-.219c0-.12-.334.092-.376.239-.051.176.032.169.223-.02Z" fill="#ffbe29"/>
          <path id="Path_915" data-name="Path 915" d="M24.782,12.935c.018-.119-.185-.227-.584-.31-.293-.061-.422-.026-.4.107.012.073.11.126.387.21.443.135.576.133.6-.007Z" fill="#ffbe29"/>
          <path id="Path_916" data-name="Path 916" d="M25.173,12.38c.512-.222.556-.783.073-.93-.2-.061-.328-.028-.405.1-.059.1-.019.286.061.286.027,0,.049.034.049.076,0,.195-.782.283-1.1.124-.113-.056-.162-.2-.068-.2.07,0,.118-.147.083-.251-.049-.142-.2-.191-.408-.137-.48.122-.466.673.022.906a2.642,2.642,0,0,0,1.695.022Z" fill="#ffbe29"/>
          <path id="Path_917" data-name="Path 917" d="M24.855,11.949c.03-.027.017-.069-.033-.108-.109-.083-.1-.208.016-.35.09-.107.1-.266.132-1.877a19.383,19.383,0,0,1,.544-5.365c.111-.2.1-.2-.191-.01a2.723,2.723,0,0,0-.9,1.022c-.471.863-.634,2.025-.634,4.5,0,1.408.01,1.592.092,1.724a.262.262,0,0,1,.027.306c-.036.087-.052.17-.036.185a1.643,1.643,0,0,0,.984-.033Z" fill="#ffbe29"/>
          <path id="Path_918" data-name="Path 918" d="M29.156,9.3a.544.544,0,0,0-.079-.269c-.093-.193-.13-.225-.262-.225a5.076,5.076,0,0,1-1.761-.478c-.4-.172-.532-.211-.579-.168-.121.112.08.377.391.516a5.011,5.011,0,0,0,1.4.276c.2,0,.209.009.093.173l-.085.121.231.006a2.364,2.364,0,0,1,.39.043c.227.053.229.053.261.005Z" fill="#ffbe29"/>
          <path id="Path_919" data-name="Path 919" d="M31.567,10.553c0-.072-.216-.266-.435-.391-.172-.1-.2-.1-.2-.021,0,.122-.112.428-.155.428-.025,0-.061-.06-.081-.133a1.167,1.167,0,0,0-.185-.32l-.149-.187-.116.173c-.108.162-.3.32-.379.32-.02,0-.024-.085-.009-.189s0-.2-.032-.223-.059-.012-.059.014a.917.917,0,0,1-.315.349c-.023,0-.054-.083-.071-.183s-.044-.26-.061-.355.02-.03.082.142l.114.313.125-.191a.826.826,0,0,0,.125-.255c0-.035.023-.051.052-.035a.6.6,0,0,1,.087.28l.036.251.138-.147a2.178,2.178,0,0,0,.2-.241c.058-.092.062-.092.178,0a1.192,1.192,0,0,1,.222.286c.057.1.112.181.121.171a1.166,1.166,0,0,0,.047-.237c.016-.121.031-.225.032-.23a2.389,2.389,0,0,1,.565.358c.1.084.188.141.2.126a.82.82,0,0,0,.028-.275.389.389,0,0,0-.156-.385c-.153-.133-.157-.134-.214-.037-.073.127-.16.128-.16,0A.963.963,0,0,0,30.78,9.3c-.019,0-.08.077-.135.171a.5.5,0,0,1-.131.171,1.572,1.572,0,0,1-.481-.523c0-.064.027-.047.1.059a1.59,1.59,0,0,0,.241.268c.158.135.216.1.277-.158.017-.074.048-.134.067-.134a1.589,1.589,0,0,1,.472.489l.05.122.038-.134c.046-.164.1-.171.171-.021a1.166,1.166,0,0,0,.339.29l.283.176.057-.177c.031-.1.073-.153.092-.124a.743.743,0,0,1-.1.4.633.633,0,0,1-.2-.116l-.189-.133v.238a1.7,1.7,0,0,1-.033.348c-.034.118-.125.152-.125.046Z"/>
          <path id="Path_920" data-name="Path 920" d="M30.156,8.655c-.336-.274-.388-.337-.38-.467l.008-.138.022.134a.563.563,0,0,0,.215.281l.193.147.119-.134a.5.5,0,0,0,.121-.2c0-.088.019-.08.247.113.2.171.206.172.236.061a.568.568,0,0,0-.013-.259c-.066-.221-.053-.255.047-.121a2.408,2.408,0,0,0,.178.209c.084.084.089.083.12-.024a1.114,1.114,0,0,0,.033-.252V7.87l.182.2c.17.189.186.2.238.106a.7.7,0,0,0,.056-.283c0-.133.015-.166.049-.116a.629.629,0,0,1-.089.509l-.076.14-.1-.153c-.128-.2-.171-.192-.254.019s-.129.214-.2.061c-.049-.1-.058-.087-.093.121l-.039.231-.232-.176-.232-.176-.1.116a.42.42,0,0,0-.106.177c0,.073-.058.075-.143.006Z"/>
          <path id="Path_921" data-name="Path 921" d="M33.149,7.634c-.122-.108-.207-.21-.187-.228s.041-.023.048-.011.107.114.222.228c.265.262.21.27-.083.011Z"/>
          <path id="Path_922" data-name="Path 922" d="M29.163,7.232c-.111-.147-.1-.244.032-.4.1-.115.143-.131.314-.11a1.87,1.87,0,0,1,.525.21,1.671,1.671,0,0,0,.586.216,1.032,1.032,0,0,0,.261.014,1.83,1.83,0,0,0-.132-.21c-.173-.253-.167-.28.028-.129a1.4,1.4,0,0,0,.974.185L32.011,7l-.152-.146c-.212-.2-.147-.223.087-.025s.206.2-.256.244a1.792,1.792,0,0,1-.583-.038c-.263-.065-.273-.064-.223.022.029.05.075.09.1.09a.054.054,0,0,1,.051.056c0,.094-.567.011-.838-.123-.619-.306-.7-.332-.845-.287a.323.323,0,0,0-.192.173.237.237,0,0,0,.412.22c.043-.063.033-.106-.042-.183-.1-.105-.094-.12.046-.071.1.035.112.267.02.352a.337.337,0,0,1-.436-.05Z"/>
          <path id="Path_923" data-name="Path 923" d="M31.6,6.623c-.077-.072-.017-.089.33-.1a1.753,1.753,0,0,0,1-.267c.247-.152.313-.122.079.035a2.036,2.036,0,0,1-.868.288c-.156.016-.333.039-.394.05a.22.22,0,0,1-.146-.011Z"/>
        </g>
      </g>
      <path id="Path_924" data-name="Path 924" d="M41.744,23.474a2.606,2.606,0,0,0,.545.761c.424.326,1.294.3,1.663.683.442.449-.034,1.042-.03,1.093l.024.313s-.3,0-.424.024c-.189.03-.262.188-.614.164-.884-.059-.848-.874-.9-1.571-.044-.265-.147-.611-.205-.877a4.053,4.053,0,0,1-.061-.59Z" fill="#ffbe29" stroke="#000" stroke-width="0.082"/>
      <path id="Path_925" data-name="Path 925" d="M41.742,11.78a2.609,2.609,0,0,1,.546-.762c.424-.327,1.295-.3,1.664-.684.443-.449-.034-1.043-.03-1.095l.024-.314s-.3,0-.424-.024c-.189-.03-.263-.188-.614-.164-.884.059-.849.876-.9,1.573-.044.266-.147.612-.206.878a4.06,4.06,0,0,0-.061.59Z" fill="#ffbe29" stroke="#000" stroke-width="0.082"/>
      <path id="Path_926" data-name="Path 926" d="M19.672,11.781a2.61,2.61,0,0,0-.546-.762c-.424-.327-1.295-.3-1.664-.684-.443-.449.034-1.043.03-1.095l-.024-.314s.3,0,.424-.024c.189-.03.263-.188.614-.164.884.059.849.876.9,1.574.044.266.147.612.206.878a4.061,4.061,0,0,1,.061.591Z" fill="#ffbe29" stroke="#000" stroke-width="0.082"/>
    </g>
  </g>
</svg>
