<svg xmlns="http://www.w3.org/2000/svg" width="25" height="24.999" viewBox="0 0 25 24.999">
  <path id="Path_862" data-name="Path 862" d="M15.825,28q-.325.008-.65,0A12.495,12.495,0,0,1,6.635,6.687l.052-.052a12.487,12.487,0,0,1,17.632.008l.037.037A12.5,12.5,0,0,1,15.825,28Zm2.215-8.187L21.632,23.4a10,10,0,0,1-12.265,0l3.592-3.592a5.008,5.008,0,0,0,5.08,0Zm-6.847-1.769L7.6,21.632a10,10,0,0,1,0-12.265l3.592,3.592a5.008,5.008,0,0,0,0,5.08ZM13.1,16.21a2.512,2.512,0,0,1-.017-1.359,2.5,2.5,0,1,1,.017,1.358Zm4.937-5.018a5.008,5.008,0,0,0-5.08,0L9.367,7.6a10,10,0,0,1,12.265,0l-3.592,3.592Zm5.36,10.44a10,10,0,0,0,0-12.265l-3.592,3.592a5.008,5.008,0,0,1,0,5.08Z" transform="translate(-2.999 -3)" fill="#c8c8c8" fill-rule="evenodd"/>
</svg>
