<svg id="Group_828" data-name="Group 828" xmlns="http://www.w3.org/2000/svg" width="28.852" height="33.583" viewBox="0 0 28.852 33.583">
  <path id="Path_789" data-name="Path 789" d="M32.561,29.306l-4.176-2.287h-.076a2.216,2.216,0,0,0-2.581.473l-6.3,6.466-6.3-6.545a2.216,2.216,0,0,0-2.581-.473L6.291,29.306A2.454,2.454,0,0,0,5,31.435v8.122a2.323,2.323,0,0,0,2.278,2.366h24.3a2.323,2.323,0,0,0,2.278-2.366V31.435a2.454,2.454,0,0,0-1.291-2.129Zm-1.746,9.463H8.037v-6.86l3.341-1.893L17.3,36.166a2.885,2.885,0,0,0,4.252,0l5.922-6.151,3.341,1.893Z" transform="translate(-5 -8.339)" fill="#004f71"/>
  <path id="Path_790" data-name="Path 790" d="M21.16,21.714A8.252,8.252,0,0,0,29.12,13.2V6.1a1.634,1.634,0,0,0-1.253-1.656L21.16,2,14.453,4.445A1.634,1.634,0,0,0,13.2,6.1v7.1a8.252,8.252,0,0,0,7.96,8.516ZM18.949,5.943h1.474V4.366a.739.739,0,1,1,1.474,0V5.943h1.474a.79.79,0,0,1,0,1.577H21.9V9.1a.739.739,0,1,1-1.474,0V7.52H18.949a.79.79,0,0,1,0-1.577Zm-2.8,5.52H26.171V13.2A5.2,5.2,0,0,1,21.16,18.56,5.2,5.2,0,0,1,16.148,13.2Z" transform="translate(-6.734 -2)" fill="#004f71"/>
</svg>
