<svg xmlns="http://www.w3.org/2000/svg" width="28" height="28" viewBox="0 0 28 28"><defs><style>.a{fill:none;}.b{fill:#84c7dd;}</style></defs><path class="a" d="M0,0H28V28H0Z"/><path class="b" d="M19.083,14.333a13.984,13.984,0,0,0-5.25,1.167,13.762,13.762,0,0,0-5.25-1.167C6.052,14.333,1,15.593,1,18.125v3.208H26.667V18.125C26.667,15.593,21.615,14.333,19.083,14.333Zm-4.667,5.25H2.75V18.125c0-.63,2.987-2.042,5.833-2.042s5.833,1.412,5.833,2.042Zm10.5,0h-8.75V18.125A2.123,2.123,0,0,0,15.56,16.7a11.255,11.255,0,0,1,3.523-.618c2.847,0,5.833,1.412,5.833,2.042ZM8.583,13.167A4.083,4.083,0,1,0,4.5,9.083,4.088,4.088,0,0,0,8.583,13.167Zm0-6.417A2.333,2.333,0,1,1,6.25,9.083,2.34,2.34,0,0,1,8.583,6.75Zm10.5,6.417A4.083,4.083,0,1,0,15,9.083,4.088,4.088,0,0,0,19.083,13.167Zm0-6.417A2.333,2.333,0,1,1,16.75,9.083,2.34,2.34,0,0,1,19.083,6.75Z" transform="translate(0.167 0.833)"/></svg>