<svg xmlns="http://www.w3.org/2000/svg" width="54" height="54" viewBox="0 0 54 54">
  <g id="Icon_ionic-ios-information-circle-outline" data-name="Icon ionic-ios-information-circle-outline" transform="translate(-3.375 -3.375)">
    <path id="Path_852" data-name="Path 852" d="M16.552,13.2a2.5,2.5,0,1,1,2.488,2.5A2.466,2.466,0,0,1,16.552,13.2Zm.17,4.469h4.636v18.04H16.721Z" transform="translate(11.375 7.934)" fill="#fff"/>
    <path id="Path_853" data-name="Path 853" d="M30.375,7.01A23.369,23.369,0,0,1,46.9,46.9,23.369,23.369,0,0,1,13.85,13.85,23.211,23.211,0,0,1,30.375,7.01m0-3.635a27,27,0,1,0,27,27,27,27,0,0,0-27-27Z" fill="#fff"/>
  </g>
</svg>
