<svg xmlns="http://www.w3.org/2000/svg" width="169.099" height="35.251" viewBox="0 0 169.099 35.251">
  <g id="Logo_with_Tagline" data-name="Logo with Tagline" transform="translate(-70.48 -370.86)">
    <g id="Group_995" data-name="Group 995" transform="translate(70.48 370.86)">
      <path id="Path_92" data-name="Path 92" d="M92.933,433.058v21.319H87.519v-2.813a8.351,8.351,0,0,1-6.84,3.064c-5.582,0-10.2-4.826-10.2-11.078s4.617-11.08,10.2-11.08a8.354,8.354,0,0,1,6.84,3.064v-2.476ZM87.519,443.55a5.814,5.814,0,1,0-5.833,5.917,5.641,5.641,0,0,0,5.833-5.917Z" transform="translate(-70.48 -427.183)" fill="#fff"/>
      <path id="Path_93" data-name="Path 93" d="M224.121,443.55c0,6.252-4.617,11.078-10.239,11.078a8.147,8.147,0,0,1-6.8-3.064v10.869H201.67V433.058h5.414v2.476a8.152,8.152,0,0,1,6.8-3.064C219.5,432.47,224.121,437.3,224.121,443.55Zm-5.414,0a5.813,5.813,0,1,0-5.833,5.917A5.641,5.641,0,0,0,218.707,443.55Z" transform="translate(-176.548 -427.183)" fill="#fff"/>
      <path id="Path_94" data-name="Path 94" d="M355.3,433.058v21.319h-5.414v-2.813a8.348,8.348,0,0,1-6.84,3.064c-5.58,0-10.2-4.826-10.2-11.078s4.625-11.08,10.2-11.08a8.354,8.354,0,0,1,6.84,3.064v-2.476Zm-5.414,10.492a5.813,5.813,0,1,0-5.833,5.917A5.641,5.641,0,0,0,349.887,443.55Z" transform="translate(-282.607 -427.183)" fill="#fff"/>
      <path id="Path_95" data-name="Path 95" d="M475.8,435.45v5.2c-2.872-.169-6.379,1.367-6.379,5.774v10.366H464V435.467h5.419v3.61C470.511,436.224,473.156,435.45,475.8,435.45Z" transform="translate(-388.642 -429.592)" fill="#fff"/>
      <path id="Path_96" data-name="Path 96" d="M548.615,415.94v8.728c0,2.265,1.635,2.308,4.742,2.139v4.91c-7.595.841-10.149-1.385-10.149-7.049V415.94H539.55v-5.2H543.2V406.5l5.414-1.637v5.875h4.742v5.2Z" transform="translate(-449.725 -404.86)" fill="#fff"/>
      <path id="Path_97" data-name="Path 97" d="M645.318,441.158v13.213H639.9V441.828c0-2.853-1.724-4.322-4.156-4.322-2.643,0-4.615,1.553-4.615,5.2v11.668H625.72V433.058h5.416v2.35a7.14,7.14,0,0,1,6.252-2.938C641.834,432.47,645.318,435.576,645.318,441.158Z" transform="translate(-519.393 -427.183)" fill="#fff"/>
      <path id="Path_98" data-name="Path 98" d="M753.644,449.718a5.8,5.8,0,0,0,4.7-2.1l4.364,2.516a10.612,10.612,0,0,1-9.148,4.491c-7.051,0-11.5-4.826-11.5-11.078a10.715,10.715,0,0,1,11.08-11.08c6.21,0,10.617,4.91,10.617,11.08a12.452,12.452,0,0,1-.211,2.223H747.726C748.481,448.544,750.788,449.718,753.644,449.718Zm4.7-8.146a5.092,5.092,0,0,0-5.2-4.24,5.234,5.234,0,0,0-5.5,4.24Z" transform="translate(-613.455 -427.183)" fill="#fff"/>
      <path id="Path_99" data-name="Path 99" d="M881.172,435.45v5.2c-2.872-.169-6.379,1.367-6.379,5.774v10.366H869.37V435.467h5.414v3.61C875.873,436.224,878.518,435.45,881.172,435.45Z" transform="translate(-716.385 -429.592)" fill="#fff"/>
      <rect id="Rectangle_799" data-name="Rectangle 799" width="5.364" height="5.364" rx="2.682" transform="translate(163.735 21.949)" fill="#fff"/>
    </g>
  </g>
</svg>
