<svg xmlns="http://www.w3.org/2000/svg" width="221.627" height="53.785" viewBox="0 0 221.627 53.785">
  <g id="Logo_with_Tagline" data-name="Logo with Tagline" transform="translate(-70.48 -404.86)">
    <path id="Path_92" data-name="Path 92" d="M99.908,433.24v27.942h-7.1V457.5a10.945,10.945,0,0,1-8.965,4.016c-7.316,0-13.367-6.325-13.367-14.519s6.051-14.522,13.367-14.522a10.949,10.949,0,0,1,8.965,4.016V433.24Zm-7.1,13.751a7.62,7.62,0,1,0-7.645,7.755,7.394,7.394,0,0,0,7.645-7.755Z" transform="translate(0 -20.68)" fill="#fff"/>
    <path id="Path_93" data-name="Path 93" d="M231.1,446.992c0,8.195-6.051,14.519-13.42,14.519a10.677,10.677,0,0,1-8.91-4.016v14.246h-7.1v-38.5h7.1v3.245a10.684,10.684,0,0,1,8.91-4.016C225.044,432.47,231.1,438.795,231.1,446.992Zm-7.1,0a7.619,7.619,0,1,0-7.645,7.755A7.394,7.394,0,0,0,224,446.992Z" transform="translate(-98.264 -20.68)" fill="#fff"/>
    <path id="Path_94" data-name="Path 94" d="M362.275,433.241v27.942h-7.1V457.5a10.941,10.941,0,0,1-8.965,4.016c-7.314,0-13.365-6.325-13.365-14.519s6.061-14.522,13.365-14.522a10.949,10.949,0,0,1,8.965,4.016v-3.245Zm-7.1,13.751a7.619,7.619,0,1,0-7.645,7.755A7.394,7.394,0,0,0,355.18,446.992Z" transform="translate(-196.52 -20.68)" fill="#fff"/>
    <path id="Path_95" data-name="Path 95" d="M479.463,435.45v6.812c-3.765-.221-8.36,1.792-8.36,7.567v13.586H464V435.473h7.1V440.2C472.533,436.464,476,435.45,479.463,435.45Z" transform="translate(-294.753 -22.912)" fill="#fff"/>
    <path id="Path_96" data-name="Path 96" d="M551.432,419.382v11.44c0,2.969,2.143,3.024,6.214,2.8v6.435c-9.954,1.1-13.3-1.815-13.3-9.239v-11.44H539.55V412.56h4.786v-5.554l7.1-2.146v7.7h6.214v6.822Z" transform="translate(-351.342)" fill="#fff"/>
    <path id="Path_97" data-name="Path 97" d="M651.406,443.857v17.318h-7.1V444.736c0-3.74-2.259-5.665-5.446-5.665-3.464,0-6.049,2.035-6.049,6.819v15.292h-7.1V433.241h7.1v3.08c1.649-2.475,4.518-3.85,8.195-3.85C646.84,432.47,651.406,436.541,651.406,443.857Z" transform="translate(-415.885 -20.68)" fill="#fff"/>
    <path id="Path_98" data-name="Path 98" d="M757.242,455.076a7.608,7.608,0,0,0,6.159-2.748l5.72,3.3c-2.585,3.742-6.709,5.886-11.989,5.886-9.241,0-15.072-6.325-15.072-14.519s5.885-14.522,14.522-14.522c8.139,0,13.914,6.435,13.914,14.522a16.319,16.319,0,0,1-.276,2.914H749.487C750.475,453.537,753.5,455.076,757.242,455.076ZM763.4,444.4a6.674,6.674,0,0,0-6.819-5.557c-3.795,0-6.38,2.035-7.206,5.557Z" transform="translate(-503.025 -20.68)" fill="#fff"/>
    <path id="Path_99" data-name="Path 99" d="M884.838,435.45v6.812c-3.765-.221-8.36,1.792-8.36,7.567v13.586H869.37V435.473h7.1V440.2C877.893,436.464,881.359,435.45,884.838,435.45Z" transform="translate(-598.383 -22.912)" fill="#fff"/>
    <rect id="Rectangle_799" data-name="Rectangle 799" width="7.03" height="7.03" rx="3.515" transform="translate(285.077 433.628)" fill="#fff"/>
    <path id="Path_100" data-name="Path 100" d="M254.78,574.274V563.58h1.757V572.6h4.355v1.679Z" transform="translate(-138.044 -118.884)" fill="#89b2c4"/>
    <path id="Path_101" data-name="Path 101" d="M282.92,580.451V575.76h1.649v4.518a1.8,1.8,0,0,0,.454,1.315,1.684,1.684,0,0,0,1.255.462,1.847,1.847,0,0,0,1.421-.56,2.33,2.33,0,0,0,.52-1.641V575.76h1.646V583.4h-1.654v-.979a2.614,2.614,0,0,1-2.364,1.18,2.806,2.806,0,0,1-2.131-.846A3.239,3.239,0,0,1,282.92,580.451Z" transform="translate(-159.121 -128.007)" fill="#89b2c4"/>
    <path id="Path_102" data-name="Path 102" d="M315,583.4l2.879-3.923-2.723-3.715h1.91l1.757,2.417,1.757-2.417H322.5l-2.716,3.73,2.849,3.908H320.73l-1.887-2.61-1.91,2.61Z" transform="translate(-183.15 -128.007)" fill="#89b2c4"/>
    <path id="Path_103" data-name="Path 103" d="M349.27,580.451V575.76h1.646v4.518a1.8,1.8,0,0,0,.454,1.313,1.691,1.691,0,0,0,1.255.462,1.85,1.85,0,0,0,1.421-.56,2.341,2.341,0,0,0,.517-1.641V575.76h1.649V583.4h-1.649v-.979a2.631,2.631,0,0,1-2.364,1.18,2.8,2.8,0,0,1-2.128-.846A3.211,3.211,0,0,1,349.27,580.451Z" transform="translate(-208.819 -128.007)" fill="#89b2c4"/>
    <path id="Path_104" data-name="Path 104" d="M384.59,583v-7.637h1.649v1.277a2.323,2.323,0,0,1,2.357-1.411V577h-.211a2.342,2.342,0,0,0-1.446.469,1.927,1.927,0,0,0-.7,1.682v3.853Z" transform="translate(-235.274 -127.61)" fill="#89b2c4"/>
    <path id="Path_105" data-name="Path 105" d="M402.45,575.76h1.8l2.274,5.542,1.953-5.542h1.757l-2.932,7.883q-1.044,2.816-3.464,2.819h-.251v-1.544h.166a1.712,1.712,0,0,0,1.074-.329,2.676,2.676,0,0,0,.791-1.177l.073-.151Z" transform="translate(-248.651 -128.007)" fill="#89b2c4"/>
    <path id="Path_106" data-name="Path 106" d="M453.22,574.274V563.58h1.757V572.6h4.355v1.679Z" transform="translate(-286.679 -118.884)" fill="#89b2c4"/>
    <path id="Path_107" data-name="Path 107" d="M481.39,563.849a1,1,0,0,1,.306-.733,1.039,1.039,0,0,1,1.506,0,1,1,0,0,1,.3.733,1.024,1.024,0,0,1-.321.753,1,1,0,0,1-.735.306,1.047,1.047,0,0,1-1.054-1.052Zm.231,9.836v-7.637h1.649v7.637Z" transform="translate(-307.779 -118.295)" fill="#89b2c4"/>
    <path id="Path_108" data-name="Path 108" d="M493,575.76h1.8l2.141,5.8,2.116-5.8h1.8l-2.974,7.637h-1.91Z" transform="translate(-316.475 -128.007)" fill="#89b2c4"/>
    <path id="Path_109" data-name="Path 109" d="M527.5,563.849a1,1,0,0,1,.306-.733,1.039,1.039,0,0,1,1.506,0,1,1,0,0,1,.306.733,1.024,1.024,0,0,1-.321.753,1,1,0,0,1-.733.306,1.047,1.047,0,0,1-1.064-1.059Zm.231,9.836v-7.637h1.651v7.637Z" transform="translate(-342.316 -118.295)" fill="#89b2c4"/>
    <path id="Path_110" data-name="Path 110" d="M542.6,582.79v-7.637h1.646v.976a2.626,2.626,0,0,1,2.372-1.177,2.794,2.794,0,0,1,2.128.846,3.211,3.211,0,0,1,.8,2.3v4.691H547.9v-4.518a1.782,1.782,0,0,0-.459-1.313,1.684,1.684,0,0,0-1.255-.462,1.835,1.835,0,0,0-1.421.56,2.322,2.322,0,0,0-.52,1.639v4.1Z" transform="translate(-353.626 -127.4)" fill="#89b2c4"/>
    <path id="Path_111" data-name="Path 111" d="M575.627,578.927a3.83,3.83,0,0,1,1.112-2.783,3.649,3.649,0,0,1,2.746-1.152,3.052,3.052,0,0,1,2.655,1.335v-1.134h1.611v7.279a3.27,3.27,0,0,1-1.142,2.67,4.239,4.239,0,0,1-2.781.931,3.709,3.709,0,0,1-3.617-1.867l1.418-.808a2.284,2.284,0,0,0,2.229,1.162A2.387,2.387,0,0,0,581.53,584a1.993,1.993,0,0,0,.6-1.541v-.924a3.062,3.062,0,0,1-2.648,1.323,3.684,3.684,0,0,1-2.736-1.139,3.892,3.892,0,0,1-1.122-2.8Zm1.649,0a2.316,2.316,0,0,0,.685,1.707,2.41,2.41,0,0,0,1.739.685,2.347,2.347,0,0,0,1.729-.685,2.442,2.442,0,0,0,0-3.423,2.347,2.347,0,0,0-1.729-.685,2.41,2.41,0,0,0-1.739.685A2.329,2.329,0,0,0,577.276,578.927Z" transform="translate(-378.363 -127.43)" fill="#89b2c4"/>
    <path id="Path_112" data-name="Path 112" d="M629.05,571.223l1.506-.881a2.549,2.549,0,0,0,2.66,1.8,2.457,2.457,0,0,0,1.478-.376,1.212,1.212,0,0,0,.5-1.024,1.122,1.122,0,0,0-.537-1,8.237,8.237,0,0,0-1.895-.768,13.076,13.076,0,0,1-1.255-.437,6.219,6.219,0,0,1-.984-.542,2.485,2.485,0,0,1-1.036-2.153,2.745,2.745,0,0,1,1-2.244,3.639,3.639,0,0,1,2.43-.836,3.955,3.955,0,0,1,3.722,2.352l-1.476.853a2.308,2.308,0,0,0-2.259-1.491,1.932,1.932,0,0,0-1.225.356,1.157,1.157,0,0,0-.459.964,1.109,1.109,0,0,0,.459.936,5.985,5.985,0,0,0,1.7.733c.452.151.753.251.886.306s.4.141.8.3a2.831,2.831,0,0,1,.776.432,2.513,2.513,0,0,1,1.1,2.023v.178a2.808,2.808,0,0,1-1.052,2.3,4.066,4.066,0,0,1-2.721.858,4.731,4.731,0,0,1-2.613-.7A3.64,3.64,0,0,1,629.05,571.223Z" transform="translate(-418.379 -118.265)" fill="#89b2c4"/>
    <path id="Path_113" data-name="Path 113" d="M665.27,563.887a1,1,0,0,1,.306-.733,1.057,1.057,0,0,1,1.8.733,1.024,1.024,0,0,1-.321.753,1,1,0,0,1-.733.306,1.047,1.047,0,0,1-1.057-1.052Zm.231,9.836v-7.637h1.649v7.637Z" transform="translate(-445.508 -118.332)" fill="#89b2c4"/>
    <path id="Path_114" data-name="Path 114" d="M680.37,582.788v-7.637h1.646v.919a2.444,2.444,0,0,1,2.186-1.119,2.331,2.331,0,0,1,2.168,1.207,2.549,2.549,0,0,1,2.334-1.207,2.736,2.736,0,0,1,2.093.846,3.165,3.165,0,0,1,.793,2.259v4.736h-1.649v-4.633a1.769,1.769,0,0,0-.394-1.225,1.39,1.39,0,0,0-1.089-.439,1.518,1.518,0,0,0-1.222.5,2.243,2.243,0,0,0-.439,1.506v4.267h-1.649v-4.611a1.835,1.835,0,0,0-.374-1.227,1.313,1.313,0,0,0-1.057-.437,1.576,1.576,0,0,0-1.235.525,2.183,2.183,0,0,0-.467,1.506v4.267Z" transform="translate(-456.818 -127.398)" fill="#89b2c4"/>
    <path id="Path_115" data-name="Path 115" d="M732.12,585.855V575.161h1.649v1.1a3.083,3.083,0,0,1,2.678-1.3,3.6,3.6,0,0,1,2.683,1.177,4.184,4.184,0,0,1,0,5.7A3.594,3.594,0,0,1,736.447,583a3.12,3.12,0,0,1-2.678-1.282v4.139Zm1.649-6.877a2.437,2.437,0,0,0,.685,1.757,2.51,2.51,0,0,0,3.453,0,2.437,2.437,0,0,0,.685-1.757,2.354,2.354,0,0,0-.685-1.737,2.46,2.46,0,0,0-3.453,0,2.354,2.354,0,0,0-.685,1.744Z" transform="translate(-495.58 -127.408)" fill="#89b2c4"/>
    <path id="Path_116" data-name="Path 116" d="M770.45,572.919V561.77h1.644v11.149Z" transform="translate(-524.29 -117.528)" fill="#89b2c4"/>
    <path id="Path_117" data-name="Path 117" d="M783.7,563.849a1,1,0,0,1,.306-.733,1.039,1.039,0,0,1,1.506,0,1,1,0,0,1,.306.733,1.024,1.024,0,0,1-.321.753,1,1,0,0,1-.733.306,1.047,1.047,0,0,1-1.064-1.059Zm.231,9.836v-7.637h1.649v7.637Z" transform="translate(-534.214 -118.295)" fill="#89b2c4"/>
    <path id="Path_118" data-name="Path 118" d="M796.36,567.6V566.03h1.165v-.148q0-3.1,3.453-3.1a7.782,7.782,0,0,1,1.692.191v1.506a12.1,12.1,0,0,0-1.692-.12,2.179,2.179,0,0,0-1.373.349,1.431,1.431,0,0,0-.432,1.177v.151h4.184v7.637h-1.649V567.6h-2.535v6.064h-1.649V567.6Z" transform="translate(-543.697 -118.285)" fill="#89b2c4"/>
    <path id="Path_119" data-name="Path 119" d="M830.135,579.007a3.913,3.913,0,0,1,1.127-2.856,3.84,3.84,0,0,1,2.9-1.159,3.589,3.589,0,0,1,2.761,1.177A4.058,4.058,0,0,1,838,579.025a4.842,4.842,0,0,1-.058.688h-6.086a2.093,2.093,0,0,0,.833,1.333,2.682,2.682,0,0,0,1.614.472,2.259,2.259,0,0,0,1.968-.949l1.358.791a3.745,3.745,0,0,1-3.341,1.664,4.113,4.113,0,0,1-3.012-1.134A3.91,3.91,0,0,1,830.135,579.007Zm1.707-.64h4.49a2.279,2.279,0,0,0-.753-1.38,2.171,2.171,0,0,0-1.426-.484,2.339,2.339,0,0,0-1.521.5,2.259,2.259,0,0,0-.791,1.355Z" transform="translate(-568.993 -127.429)" fill="#89b2c4"/>
    <path id="Path_120" data-name="Path 120" d="M865.346,570.462a3.965,3.965,0,0,1,1.109-2.856,3.6,3.6,0,0,1,2.693-1.16,3.115,3.115,0,0,1,2.67,1.283V563.58h1.646v10.694h-1.646v-1.1a3.1,3.1,0,0,1-2.671,1.3,3.6,3.6,0,0,1-2.693-1.165A3.961,3.961,0,0,1,865.346,570.462Zm1.646,0a2.429,2.429,0,0,0,.688,1.757,2.51,2.51,0,0,0,3.451,0,2.429,2.429,0,0,0,.688-1.757,2.347,2.347,0,0,0-.688-1.737,2.457,2.457,0,0,0-3.451,0A2.346,2.346,0,0,0,866.992,570.462Z" transform="translate(-595.368 -118.884)" fill="#89b2c4"/>
  </g>
</svg>
