<svg xmlns="http://www.w3.org/2000/svg" width="177" height="36.882" viewBox="0 0 177 36.882">
  <g id="Logo_Only" data-name="Logo Only" transform="translate(-70.48 -420)">
    <path id="Path_1" data-name="Path 1" d="M93.982,448.185v22.321H88.316v-2.951a8.747,8.747,0,0,1-7.16,3.207c-5.843,0-10.676-5.051-10.676-11.6s4.833-11.6,10.676-11.6a8.744,8.744,0,0,1,7.16,3.207v-2.592Zm-5.667,10.982a6.085,6.085,0,1,0-6.106,6.194A5.9,5.9,0,0,0,88.316,459.168Z" transform="translate(0 -22.044)" fill="#fff"/>
    <path id="Path_2" data-name="Path 2" d="M225.17,459.168c0,6.544-4.833,11.6-10.718,11.6a8.533,8.533,0,0,1-7.116-3.207v11.369H201.67v-30.74h5.667v2.592a8.533,8.533,0,0,1,7.116-3.207C220.337,447.57,225.17,452.621,225.17,459.168Zm-5.667,0a6.084,6.084,0,1,0-6.106,6.194A5.9,5.9,0,0,0,219.5,459.168Z" transform="translate(-104.894 -22.044)" fill="#fff"/>
    <path id="Path_3" data-name="Path 3" d="M356.35,448.185v22.321h-5.667v-2.951a8.744,8.744,0,0,1-7.16,3.207c-5.841,0-10.674-5.051-10.674-11.6s4.841-11.6,10.674-11.6a8.744,8.744,0,0,1,7.16,3.207v-2.592Zm-5.667,10.982a6.084,6.084,0,1,0-6.106,6.194A5.9,5.9,0,0,0,350.684,459.168Z" transform="translate(-209.78 -22.044)" fill="#fff"/>
    <path id="Path_4" data-name="Path 4" d="M476.349,450.55v5.438c-3.007-.174-6.677,1.433-6.677,6.045v10.856H464V450.568h5.673v3.778C470.815,451.358,473.583,450.55,476.349,450.55Z" transform="translate(-314.641 -24.426)" fill="#fff"/>
    <path id="Path_5" data-name="Path 5" d="M549.039,431.588v9.138c0,2.371,1.712,2.415,4.963,2.239V448.1c-7.95.88-10.624-1.449-10.624-7.378v-9.138H539.55v-5.446h3.822V421.7l5.667-1.7v6.15H554V431.6Z" transform="translate(-375.048)" fill="#fff"/>
    <path id="Path_6" data-name="Path 6" d="M646.233,456.662v13.831h-5.667V457.366c0-2.987-1.8-4.524-4.35-4.524-2.766,0-4.831,1.626-4.831,5.446v12.219H625.72V448.185h5.669v2.459c1.317-1.976,3.608-3.075,6.544-3.075C642.587,447.57,646.233,450.821,646.233,456.662Z" transform="translate(-443.945 -22.044)" fill="#fff"/>
    <path id="Path_7" data-name="Path 7" d="M754.185,465.592a6.052,6.052,0,0,0,4.919-2.2l4.568,2.636a11.112,11.112,0,0,1-9.575,4.7c-7.38,0-12.037-5.051-12.037-11.6a11.216,11.216,0,0,1,11.6-11.6c6.5,0,11.113,5.139,11.113,11.6a13.028,13.028,0,0,1-.221,2.327H747.991C748.781,464.361,751.2,465.592,754.185,465.592Zm4.919-8.521a5.328,5.328,0,0,0-5.446-4.436,5.478,5.478,0,0,0-5.755,4.438Z" transform="translate(-536.966 -22.012)" fill="#fff"/>
    <path id="Path_8" data-name="Path 8" d="M881.723,450.55v5.438c-3.007-.174-6.677,1.433-6.677,6.045v10.856H869.37V450.568h5.667v3.778C876.177,451.358,878.945,450.55,881.723,450.55Z" transform="translate(-638.757 -24.426)" fill="#fff"/>
    <rect id="Rectangle_1" data-name="Rectangle 1" width="5.614" height="5.614" rx="2.807" transform="translate(241.866 442.967)" fill="#fff"/>
  </g>
</svg>
