<svg xmlns="http://www.w3.org/2000/svg" width="12.492" height="12.492" viewBox="0 0 12.492 12.492">
  <path id="Icon_metro-my-location" data-name="Icon metro-my-location" d="M10.1,7.831A2.271,2.271,0,1,0,12.373,10.1,2.271,2.271,0,0,0,10.1,7.831Zm5.076,1.7A5.107,5.107,0,0,0,10.67,5.026V3.856H9.534v1.17A5.107,5.107,0,0,0,5.026,9.534H3.856V10.67h1.17a5.107,5.107,0,0,0,4.508,4.508v1.17H10.67v-1.17a5.107,5.107,0,0,0,4.508-4.508h1.17V9.534h-1.17ZM10.1,14.077A3.975,3.975,0,1,1,14.077,10.1,3.975,3.975,0,0,1,10.1,14.077Z" transform="translate(-3.856 -3.856)" fill="#89b2c4"/>
</svg>
