<svg xmlns="http://www.w3.org/2000/svg" width="35.092" height="30.079" viewBox="0 0 35.092 30.079">
  <g id="nominate" transform="translate(-5 -10)">
    <path id="Path_863" data-name="Path 863" d="M51.28,57.5H43.76A3.76,3.76,0,0,0,40,61.26v2.507h2.507V61.26a1.253,1.253,0,0,1,1.253-1.253h7.52a1.253,1.253,0,0,1,1.253,1.253v2.507h2.507V61.26A3.76,3.76,0,0,0,51.28,57.5Z" transform="translate(-17.454 -23.688)" fill="#89b2c4"/>
    <path id="Path_864" data-name="Path 864" d="M45,40.013A5.013,5.013,0,1,0,50.013,35,5.013,5.013,0,0,0,45,40.013Zm7.52,0a2.507,2.507,0,1,1-2.507-2.507A2.507,2.507,0,0,1,52.52,40.013Z" transform="translate(-19.948 -12.467)" fill="#89b2c4"/>
    <path id="Path_865" data-name="Path 865" d="M20.013,39.506,16.767,36.26,15,38.027l5.013,5.013,8.773-8.773L27.019,32.5Z" transform="translate(-4.987 -11.22)" fill="#89b2c4"/>
    <path id="Path_866" data-name="Path 866" d="M20.039,37.572H7.507V12.507H16.5l4.279,4.279.734.734H37.585V27.546h2.507V17.52a2.507,2.507,0,0,0-2.507-2.507H22.546l-4.279-4.279A2.507,2.507,0,0,0,16.5,10H7.507A2.507,2.507,0,0,0,5,12.507V37.572a2.507,2.507,0,0,0,2.507,2.507H20.039Z" transform="translate(0 0)" fill="#89b2c4"/>
  </g>
</svg>
