<svg id="people" xmlns="http://www.w3.org/2000/svg" width="33.75" height="31.5" viewBox="0 0 33.75 31.5">
  <path id="Path_84" data-name="Path 84" d="M29.25,15.75H27V18h2.25a3.378,3.378,0,0,1,3.375,3.375v4.5h2.25v-4.5A5.632,5.632,0,0,0,29.25,15.75Z" transform="translate(-1.125 -2.25)" fill="#89b2c4"/>
  <path id="Path_85" data-name="Path 85" d="M27,4.5a3.375,3.375,0,1,1-3.375,3.375A3.375,3.375,0,0,1,27,4.5m0-2.25a5.625,5.625,0,1,0,5.625,5.625A5.625,5.625,0,0,0,27,2.25Z" transform="translate(-1.125 -2.25)" fill="#89b2c4"/>
  <path id="Path_86" data-name="Path 86" d="M25.875,33.75h-2.25V31.5a3.378,3.378,0,0,0-3.375-3.375h-4.5A3.378,3.378,0,0,0,12.375,31.5v2.25h-2.25V31.5a5.632,5.632,0,0,1,5.625-5.625h4.5A5.632,5.632,0,0,1,25.875,31.5Z" transform="translate(-1.125 -2.25)" fill="#89b2c4"/>
  <path id="Path_87" data-name="Path 87" d="M18,14.625A3.375,3.375,0,1,1,14.625,18,3.375,3.375,0,0,1,18,14.625m0-2.25A5.625,5.625,0,1,0,23.625,18,5.625,5.625,0,0,0,18,12.375Z" transform="translate(-1.125 -2.25)" fill="#89b2c4"/>
  <path id="Path_88" data-name="Path 88" d="M9,15.75H6.75a5.632,5.632,0,0,0-5.625,5.625v4.5h2.25v-4.5A3.378,3.378,0,0,1,6.75,18H9Z" transform="translate(-1.125 -2.25)" fill="#89b2c4"/>
  <path id="Path_89" data-name="Path 89" d="M9,4.5A3.375,3.375,0,1,1,5.625,7.875,3.375,3.375,0,0,1,9,4.5M9,2.25a5.625,5.625,0,1,0,5.625,5.625A5.625,5.625,0,0,0,9,2.25Z" transform="translate(-1.125 -2.25)" fill="#89b2c4"/>
</svg>
