<svg xmlns="http://www.w3.org/2000/svg" width="28" height="24" viewBox="0 0 28 24"><defs><style>.a{fill:none;}.b{fill:#84c7dd;}</style></defs><path class="a" d="M0,0H28V24H0Z"/><path class="b" d="M11.6,8,7.7,11.25a7.145,7.145,0,0,1,.924.39A2.456,2.456,0,0,0,10,12a2.456,2.456,0,0,0,1.38-.36A5.345,5.345,0,0,1,14.012,11a5.251,5.251,0,0,1,2.616.64,2.57,2.57,0,0,0,1.38.36,2.484,2.484,0,0,0,1.38-.36c.144-.07.312-.15.492-.23L12.176,5C10.316,3.45,8.6,2.99,5.6,3V5.5A6.589,6.589,0,0,1,10.4,7ZM26,16.5h0Zm-19.98-1a2.57,2.57,0,0,1,1.38.36,5.251,5.251,0,0,0,2.616.64,5.251,5.251,0,0,0,2.616-.64,2.456,2.456,0,0,1,1.38-.36,2.57,2.57,0,0,1,1.38.36,5.251,5.251,0,0,0,2.616.64,5.251,5.251,0,0,0,2.616-.64A2.456,2.456,0,0,1,22,15.5a2.57,2.57,0,0,1,1.38.36,5.29,5.29,0,0,0,2.592.64v-2a2.57,2.57,0,0,1-1.38-.36,5.666,5.666,0,0,0-5.232,0,2.484,2.484,0,0,1-1.38.36,2.57,2.57,0,0,1-1.38-.36,5.251,5.251,0,0,0-2.616-.64,5.251,5.251,0,0,0-2.616.64,2.456,2.456,0,0,1-1.38.36,2.57,2.57,0,0,1-1.38-.36A5.251,5.251,0,0,0,6,13.5a5.251,5.251,0,0,0-2.616.64A2.456,2.456,0,0,1,2,14.5v2a5.44,5.44,0,0,0,2.64-.64,2.484,2.484,0,0,1,1.38-.36ZM22,18a5.251,5.251,0,0,0-2.616.64,2.484,2.484,0,0,1-1.38.36,2.57,2.57,0,0,1-1.38-.36A5.251,5.251,0,0,0,14.012,18a5.345,5.345,0,0,0-2.628.64A2.456,2.456,0,0,1,10,19a2.456,2.456,0,0,1-1.38-.36A5.251,5.251,0,0,0,6.008,18a5.345,5.345,0,0,0-2.628.64A2.456,2.456,0,0,1,2,19v2a5.345,5.345,0,0,0,2.628-.64A2.484,2.484,0,0,1,6.008,20a2.484,2.484,0,0,1,1.38.36A5.251,5.251,0,0,0,10,21a5.345,5.345,0,0,0,2.628-.64,2.456,2.456,0,0,1,1.38-.36,2.57,2.57,0,0,1,1.38.36,5.251,5.251,0,0,0,2.616.64,5.29,5.29,0,0,0,2.616-.64A2.456,2.456,0,0,1,22,20a2.57,2.57,0,0,1,1.38.36A5.251,5.251,0,0,0,26,21V19a2.456,2.456,0,0,1-1.38-.36A5.251,5.251,0,0,0,22,18Z"/><circle class="b" cx="2.5" cy="2.5" r="2.5" transform="translate(16.947 3)"/></svg>