<svg xmlns="http://www.w3.org/2000/svg" width="30.549" height="34.106" viewBox="0 0 30.549 34.106">
  <g id="ticket" transform="matrix(0.438, -0.899, 0.899, 0.438, -6.385, 24.034)">
    <path id="Path_784" data-name="Path 784" d="M28.323,14.475a.966.966,0,0,0,.966-.966V8.681A1.931,1.931,0,0,0,27.358,6.75H4.181A1.931,1.931,0,0,0,2.25,8.681V13.51a.966.966,0,0,0,.966.966,1.931,1.931,0,0,1,0,3.863.966.966,0,0,0-.966.966v4.828a1.931,1.931,0,0,0,1.931,1.931H27.358a1.931,1.931,0,0,0,1.931-1.931V19.3a.966.966,0,0,0-.966-.966,1.931,1.931,0,1,1,0-3.863Zm-.966,5.669v3.988H20.6v-2.9H18.667v2.9H4.181V20.144a3.863,3.863,0,0,0,0-7.474V8.681H18.667v2.9H20.6v-2.9h6.76v3.988a3.863,3.863,0,0,0,0,7.474Z" transform="translate(0 0)" fill="#f5f5f5" stroke="#f5f5f5" stroke-width="1"/>
    <path id="Path_785" data-name="Path 785" d="M21.375,14.625h1.931v5.794H21.375Z" transform="translate(-2.708 -1.115)" fill="#f5f5f5" stroke="#f5f5f5" stroke-width="1"/>
  </g>
</svg>
