<svg xmlns="http://www.w3.org/2000/svg" width="21.145" height="19.789" viewBox="0 0 21.145 19.789">
  <g id="Group_1004" data-name="Group 1004" transform="translate(5 -5.461)">
    <g id="Icon_Parcel" data-name="Icon Parcel" transform="translate(-5 5.461)">
      <path id="Path_15" data-name="Path 15" d="M54.406,74.968h-6.1a1.561,1.561,0,0,1-1.524-1.6v-1.6a1.561,1.561,0,0,1,1.524-1.6h6.1a1.561,1.561,0,0,1,1.524,1.6v1.6A1.561,1.561,0,0,1,54.406,74.968Zm-6.1-3.193v1.6h6.1v-1.6Z" transform="translate(-40.786 -62.179)" fill="#212322"/>
      <path id="Path_16" data-name="Path 16" d="M28.991,18.714H10.867a1.516,1.516,0,0,0-1.51,1.522v3.044a1.516,1.516,0,0,0,1.51,1.522V36.981a1.516,1.516,0,0,0,1.51,1.522h15.1a1.516,1.516,0,0,0,1.51-1.522V24.8a1.516,1.516,0,0,0,1.51-1.522V20.237A1.516,1.516,0,0,0,28.991,18.714Zm-1.51,18.267h-15.1V24.8h15.1Zm1.51-13.7H10.867V20.237H28.991Z" transform="translate(-9.357 -18.714)" fill="#212322"/>
    </g>
  </g>
</svg>
