<svg xmlns="http://www.w3.org/2000/svg" width="35.23" height="23.215" viewBox="0 0 35.23 23.215">
  <g id="car-sport-outline" transform="translate(1.115 1)">
    <path id="Path_149" data-name="Path 149" d="M34.493,17.065c-.54-.729-2.546-1.231-3.394-2.544s-1.543-4.155-3.7-5.248-6.287-1.4-8.644-1.4-6.483.3-8.645,1.4S7.25,13.209,6.4,14.519s-2.855,1.817-3.394,2.547-.92,5.339-.688,7.6a19.265,19.265,0,0,0,.663,3.6H9.317c1.037,0,1.375-.4,3.5-.6,2.328-.225,4.612-.3,5.937-.3s3.684.075,6.009.3c2.122.2,2.47.6,3.5.6h6.262a19.265,19.265,0,0,0,.663-3.6c.232-2.261-.15-6.872-.687-7.6Z" transform="translate(-2.25 -7.875)" fill="none" stroke="#89b2c4" stroke-linecap="round" stroke-linejoin="round" stroke-width="2"/>
    <path id="Path_150" data-name="Path 150" d="M28.125,27h2.888v.825H28.125Z" transform="translate(0.751 -6.61)" fill="none" stroke="#89b2c4" stroke-linecap="round" stroke-linejoin="round" stroke-width="2"/>
    <path id="Path_151" data-name="Path 151" d="M3.938,27H6.826v.825H3.938Z" transform="translate(-2.7 -6.61)" fill="none" stroke="#89b2c4" stroke-linecap="round" stroke-linejoin="round" stroke-width="2"/>
    <path id="Path_152" data-name="Path 152" d="M32.32,21.341a17.438,17.438,0,0,0-5.1-.843c-2.567-.2-3.5-.248-5.8-.248s-3.339.084-5.8.248a17.107,17.107,0,0,0-5.1.843c-1.188.59.553,1.252,1.92,1.332,1.324.077,3.973.049,8.991.049s7.665.029,8.991-.049C31.787,22.589,33.4,21.973,32.32,21.341Z" transform="translate(-4.9 -6.506)" fill="#89b2c4"/>
    <path id="Path_153" data-name="Path 153" d="M28.853,17.031a.166.166,0,0,0-.16-.155,6.687,6.687,0,0,0-2.324.345A4.841,4.841,0,0,0,24.818,18a.221.221,0,0,0,.072.366,23.477,23.477,0,0,0,2.724.16c.546,0,1.11-.155,1.214-.642a2.7,2.7,0,0,0,.025-.851Z" transform="translate(1.651 -7.092)" fill="#89b2c4"/>
    <path id="Path_154" data-name="Path 154" d="M5.647,17.031a.166.166,0,0,1,.16-.155,6.687,6.687,0,0,1,2.324.345A4.841,4.841,0,0,1,9.682,18a.221.221,0,0,1-.072.366,23.477,23.477,0,0,1-2.724.16c-.546,0-1.11-.155-1.214-.642a2.7,2.7,0,0,1-.025-.851Z" transform="translate(-3.15 -7.092)" fill="#89b2c4"/>
    <path id="Path_155" data-name="Path 155" d="M30.375,13.5H31.2" transform="translate(0.151 -7.607)" fill="none" stroke="#89b2c4" stroke-linecap="round" stroke-linejoin="round" stroke-width="2"/>
    <path id="Path_156" data-name="Path 156" d="M4.5,13.5h.825" transform="translate(-2.85 -7.607)" fill="none" stroke="#89b2c4" stroke-linecap="round" stroke-linejoin="round" stroke-width="2"/>
    <path id="Path_157" data-name="Path 157" d="M5.484,14.611s3.679-.619,14.129-.619,14.129.619,14.129.619" transform="translate(-3.112 -7.5)" fill="none" stroke="#89b2c4" stroke-linecap="round" stroke-linejoin="round" stroke-width="2"/>
  </g>
</svg>
