<svg xmlns="http://www.w3.org/2000/svg" width="30.144" height="28.679" viewBox="0 0 30.144 28.679">
  <g id="Icon_ionic-ios-fitness" data-name="Icon ionic-ios-fitness" transform="translate(-10.244 11.679) rotate(-39)">
    <path id="Path_633" data-name="Path 633" d="M24.75,19.688H11.25a.564.564,0,0,1-.562-.562v-2.25a.564.564,0,0,1,.563-.562h13.5a.564.564,0,0,1,.563.563v2.25A.564.564,0,0,1,24.75,19.688Z" fill="#89b2c4"/>
    <path id="Path_634" data-name="Path 634" d="M26.578,25.453V10.547A1.551,1.551,0,0,1,28.125,9h0a1.551,1.551,0,0,1,1.547,1.547V25.453A1.551,1.551,0,0,1,28.125,27h0A1.551,1.551,0,0,1,26.578,25.453Z" fill="#89b2c4"/>
    <path id="Path_635" data-name="Path 635" d="M32.344,13.5H31.5a.564.564,0,0,0-.562.563v7.875a.564.564,0,0,0,.563.563h.844a1.41,1.41,0,0,0,1.406-1.406V14.906A1.41,1.41,0,0,0,32.344,13.5Z" fill="#89b2c4"/>
    <path id="Path_636" data-name="Path 636" d="M9.422,25.453V10.547A1.551,1.551,0,0,0,7.875,9h0a1.551,1.551,0,0,0-1.547,1.547V25.453A1.551,1.551,0,0,0,7.875,27h0A1.551,1.551,0,0,0,9.422,25.453Z" fill="#89b2c4"/>
    <path id="Path_637" data-name="Path 637" d="M4.5,13.5H3.656A1.41,1.41,0,0,0,2.25,14.906v6.188A1.41,1.41,0,0,0,3.656,22.5H4.5a.564.564,0,0,0,.563-.562V14.063A.564.564,0,0,0,4.5,13.5Z" fill="#89b2c4"/>
  </g>
</svg>
