<svg id="pool" xmlns="http://www.w3.org/2000/svg" width="33.749" height="32.625" viewBox="0 0 33.749 32.625">
  <path id="Path_48" data-name="Path 48" d="M32.94,25.4a6.777,6.777,0,0,0-5.774,0,4.459,4.459,0,0,1-3.87,0,6.217,6.217,0,0,0-2.886-.646,6.213,6.213,0,0,0-2.886.646,3.96,3.96,0,0,1-1.935.442,3.96,3.96,0,0,1-1.935-.442,6.217,6.217,0,0,0-2.886-.646,6.213,6.213,0,0,0-2.886.646,3.96,3.96,0,0,1-1.935.442A3.96,3.96,0,0,1,4.012,25.4a6.222,6.222,0,0,0-2.887-.646v2.175a3.96,3.96,0,0,1,1.935.442,6.217,6.217,0,0,0,2.886.646,6.213,6.213,0,0,0,2.886-.646,3.96,3.96,0,0,1,1.935-.442,3.96,3.96,0,0,1,1.935.442,6.217,6.217,0,0,0,2.886.646,6.213,6.213,0,0,0,2.886-.646,3.96,3.96,0,0,1,1.935-.442,3.96,3.96,0,0,1,1.935.442,6.774,6.774,0,0,0,5.773,0,4.459,4.459,0,0,1,3.87,0,6.222,6.222,0,0,0,2.887.646V25.837a3.96,3.96,0,0,1-1.935-.442Z" transform="translate(-1.125 -1.913)" fill="#89b2c4"/>
  <path id="Path_49" data-name="Path 49" d="M30.053,31.5a6.222,6.222,0,0,0-2.887.646,4.459,4.459,0,0,1-3.87,0A6.217,6.217,0,0,0,20.41,31.5a6.213,6.213,0,0,0-2.886.646,3.96,3.96,0,0,1-1.935.442,3.96,3.96,0,0,1-1.935-.442,6.217,6.217,0,0,0-2.886-.646,6.213,6.213,0,0,0-2.886.646,3.96,3.96,0,0,1-1.935.442,3.96,3.96,0,0,1-1.935-.442A6.222,6.222,0,0,0,1.125,31.5v2.175a3.96,3.96,0,0,1,1.935.442,6.217,6.217,0,0,0,2.886.646,6.213,6.213,0,0,0,2.886-.646,3.96,3.96,0,0,1,1.935-.442,3.96,3.96,0,0,1,1.935.442,6.217,6.217,0,0,0,2.886.646,6.213,6.213,0,0,0,2.886-.646,3.96,3.96,0,0,1,1.935-.442,3.96,3.96,0,0,1,1.935.442,6.774,6.774,0,0,0,5.773,0,4.459,4.459,0,0,1,3.87,0,6.222,6.222,0,0,0,2.887.646V32.587a3.96,3.96,0,0,1-1.935-.442,6.222,6.222,0,0,0-2.887-.646Z" transform="translate(-1.125 -2.137)" fill="#89b2c4"/>
  <path id="Path_50" data-name="Path 50" d="M17.438,18.525H27.563v3.807h2.25V7.914a3.174,3.174,0,0,1,.594-1.848L33.92,1.125H31.189L28.552,4.833a5.29,5.29,0,0,0-.989,3.081v3H17.438v-3a3.174,3.174,0,0,1,.594-1.848l3.513-4.941H18.814L16.177,4.833a5.29,5.29,0,0,0-.989,3.081V22.332h2.25Zm0-5.437H27.563V16.35H17.438Z" transform="translate(-1.125 -1.125)" fill="#89b2c4"/>
</svg>
