<svg xmlns="http://www.w3.org/2000/svg" width="23.93" height="32.63" viewBox="0 0 23.93 32.63">
  <path id="stadium" d="M21.753,32.63H2.175A2.12,2.12,0,0,1,.645,32,2.071,2.071,0,0,1,0,30.455V2.175A2.091,2.091,0,0,1,.646.645,2.087,2.087,0,0,1,2.175,0H21.753a2.091,2.091,0,0,1,1.53.646,2.091,2.091,0,0,1,.646,1.53V30.456a2.147,2.147,0,0,1-2.176,2.174ZM8.7,30.455h6.526V26.1H8.7ZM15.227,2.175H8.7V6.526h6.526Zm6.526,0H17.4V8.7H6.526V2.175H2.175V15.227H6.628a5.437,5.437,0,0,1,5.337-4.351A5.437,5.437,0,0,1,17.3,15.227h4.452ZM8.7,16.315a3.249,3.249,0,0,0,3.263,3.263,3.249,3.249,0,0,0,3.263-3.263,3.249,3.249,0,0,0-3.263-3.263A3.249,3.249,0,0,0,8.7,16.315ZM21.753,17.4H17.3a5.437,5.437,0,0,1-5.336,4.351A5.437,5.437,0,0,1,6.628,17.4H2.175V30.455H6.526V23.929H17.4v6.526h4.351Z" fill="#89b2c4"/>
</svg>
