<svg xmlns="http://www.w3.org/2000/svg" width="33.201" height="32.63" viewBox="0 0 33.201 32.63">
  <g id="tennis" transform="translate(-1.125 -1.125)">
    <path id="Path_629" data-name="Path 629" d="M10.125,5.625a4.5,4.5,0,1,0-4.5,4.5,4.5,4.5,0,0,0,4.5-4.5Zm-6.75,0a2.25,2.25,0,1,1,2.25,2.25,2.25,2.25,0,0,1-2.25-2.25Z" fill="#89b2c4"/>
    <path id="Path_630" data-name="Path 630" d="M31.509,5.074a9.555,9.555,0,0,0-6.75-2.818h-.045a10.479,10.479,0,0,0-7.388,3.223,18.774,18.774,0,0,0-4.631,8.609,15.534,15.534,0,0,0-.391,2.484,8.585,8.585,0,0,1-1.093,3.684,10.194,10.194,0,0,1-1.624,2.114l-5.68,5.815A2.831,2.831,0,0,0,3,30.6a3.571,3.571,0,0,0,1.092,2.04,3.574,3.574,0,0,0,2.041,1.092,2.711,2.711,0,0,0,.34.021,2.889,2.889,0,0,0,2.082-.931l5.679-5.814a10.174,10.174,0,0,1,2.29-1.722,8.505,8.505,0,0,1,3.481-1,15.5,15.5,0,0,0,2.5-.4,18.861,18.861,0,0,0,8.6-4.642,10.46,10.46,0,0,0,3.223-7.429,9.548,9.548,0,0,0-2.818-6.747ZM6.932,31.209c-.282.28-.448.26-.51.252a1.4,1.4,0,0,1-.707-.439,1.417,1.417,0,0,1-.439-.707c-.008-.063-.029-.229.257-.514l4.54-4.648,1.4,1.4ZM13.1,24.936l-1.43-1.43a12.43,12.43,0,0,0,1.518-2.083,5.212,5.212,0,0,0,2,2A12.438,12.438,0,0,0,13.1,24.937ZM29.483,17.63a16.719,16.719,0,0,1-7.514,4.035c-2.814.678-5.17.407-6.3-.727-2.419-2.418-.639-9.92,3.283-13.84a8.07,8.07,0,0,1,5.744-2.543,7.4,7.4,0,0,1,5.2,2.138c2.554,2.553,3.279,7.253-.405,10.936Z" transform="translate(0 0)" fill="#89b2c4"/>
  </g>
</svg>
